<svg width="360" height="441" viewBox="0 0 360 441" fill="none" xmlns="http://www.w3.org/2000/svg">
<g opacity="0.2">
<path fill-rule="evenodd" clip-rule="evenodd" d="M140.304 39.5149L249.2 115.528C261.377 124.028 264.629 140.946 256.463 153.315C248.298 165.684 231.806 168.82 219.629 160.32L110.734 84.307C98.5568 75.8069 95.3044 58.889 103.47 46.52C111.636 34.1509 128.127 31.0147 140.304 39.5149Z" fill="url(#paint0_linear_1_2786)"/>
<mask id="mask0_1_2786" style="mask-type:alpha" maskUnits="userSpaceOnUse" x="98" y="34" width="163" height="132">
<path fill-rule="evenodd" clip-rule="evenodd" d="M140.313 39.5136L249.208 115.527C261.385 124.027 264.638 140.945 256.472 153.314C248.306 165.683 231.815 168.819 219.638 160.319L110.743 84.3058C98.5653 75.8058 95.3135 58.8877 103.479 46.5187C111.645 34.1497 128.136 31.0134 140.313 39.5136Z" fill="url(#paint1_linear_1_2786)"/>
</mask>
<g mask="url(#mask0_1_2786)">
<path fill-rule="evenodd" clip-rule="evenodd" d="M125.915 202.757L82.3074 268.966C74.1567 281.34 57.6732 284.494 45.4902 276.009C33.3073 267.524 30.0388 250.614 38.189 238.239L53.9943 214.242L54.139 214.022L117.154 118.347C140.275 83.242 187.036 74.2955 221.596 98.3658L286.777 143.761C298.96 152.246 302.229 169.157 294.078 181.532C285.928 193.907 269.444 197.06 257.261 188.576L192.08 143.18C181.885 136.08 168.092 138.719 161.272 149.074L126.061 202.535L125.915 202.757Z" fill="url(#paint2_linear_1_2786)"/>
</g>
<path d="M245.671 382.377L280.952 328.811L281 328.738L324.635 262.486C332.786 250.111 329.517 233.2 317.334 224.716C305.151 216.231 288.668 219.384 280.517 231.76L201.553 351.651C194.732 362.006 180.939 364.645 170.745 357.545L105.564 312.149C93.381 303.664 76.8974 306.818 68.7467 319.192C60.5961 331.568 63.8645 348.478 76.0474 356.963L141.229 402.359C175.789 426.429 222.55 417.483 245.671 382.377Z" fill="url(#paint3_linear_1_2786)"/>
<path fill-rule="evenodd" clip-rule="evenodd" d="M138.421 209.427L94.8138 275.636C86.6631 288.01 70.1796 291.164 57.9965 282.679C45.8136 274.194 42.5446 257.284 50.6953 244.909L66.5 220.912L66.6453 220.692L129.66 125.017C152.781 89.9121 199.541 80.9656 234.102 105.035L299.283 150.431C311.466 158.916 314.735 175.827 306.584 188.202C298.433 200.577 281.95 203.73 269.767 195.246L204.586 149.85C194.391 142.75 180.598 145.388 173.778 155.744L138.566 209.205L138.421 209.427Z" fill="url(#paint4_linear_1_2786)"/>
</g>
<defs>
<linearGradient id="paint0_linear_1_2786" x1="110.773" y1="115.892" x2="235.327" y2="-1.8629" gradientUnits="userSpaceOnUse">
<stop stop-color="#D8E9B4"/>
<stop offset="1" stop-color="#98DED6"/>
</linearGradient>
<linearGradient id="paint1_linear_1_2786" x1="110.782" y1="115.891" x2="235.336" y2="-1.86408" gradientUnits="userSpaceOnUse">
<stop stop-color="#D8E9B4"/>
<stop offset="1" stop-color="#98DED6"/>
</linearGradient>
<linearGradient id="paint2_linear_1_2786" x1="21.7792" y1="204.799" x2="157.651" y2="-26.591" gradientUnits="userSpaceOnUse">
<stop stop-color="#D8E9B4"/>
<stop offset="1" stop-color="#98DED6"/>
</linearGradient>
<linearGradient id="paint3_linear_1_2786" x1="69.1756" y1="358.692" x2="205.047" y2="127.301" gradientUnits="userSpaceOnUse">
<stop stop-color="#D8E9B4"/>
<stop offset="1" stop-color="#98DED6"/>
</linearGradient>
<linearGradient id="paint4_linear_1_2786" x1="34.2853" y1="211.469" x2="170.157" y2="-19.921" gradientUnits="userSpaceOnUse">
<stop stop-color="#D8E9B4"/>
<stop offset="1" stop-color="#98DED6"/>
</linearGradient>
</defs>
</svg>
