<svg width="30" height="31" viewBox="0 0 30 31" fill="none" xmlns="http://www.w3.org/2000/svg">
<g clip-path="url(#clip0_1_6014)">
<path d="M6.64863 18.6293L5.60438 22.5277L1.78764 22.6084C0.646992 20.4928 0 18.0722 0 15.4999C0 13.0126 0.604922 10.6669 1.67719 8.60156H1.67801L5.07598 9.22453L6.56449 12.6021C6.25295 13.5104 6.08314 14.4854 6.08314 15.4999C6.08326 16.601 6.28271 17.656 6.64863 18.6293Z" fill="#FBBB00"/>
<path d="M29.7382 12.6978C29.9105 13.6051 30.0003 14.5422 30.0003 15.4999C30.0003 16.5738 29.8874 17.6214 29.6723 18.6318C28.9421 22.0703 27.0341 25.0728 24.391 27.1975L24.3902 27.1967L20.1103 26.9783L19.5045 23.1969C21.2584 22.1684 22.629 20.5587 23.351 18.6318H15.3301V12.6978H29.7382Z" fill="#518EF8"/>
<path d="M24.3903 27.1967L24.3911 27.1975C21.8205 29.2637 18.5551 30.5 15.0004 30.5C9.28809 30.5 4.32162 27.3071 1.78809 22.6085L6.64908 18.6294C7.91582 22.0101 11.1771 24.4168 15.0004 24.4168C16.6438 24.4168 18.1834 23.9725 19.5046 23.197L24.3903 27.1967Z" fill="#28B446"/>
<path d="M24.574 3.95328L19.7147 7.93156C18.3474 7.07691 16.7311 6.5832 14.9996 6.5832C11.0897 6.5832 7.7674 9.10021 6.56412 12.6022L1.67758 8.60164H1.67676C4.1732 3.78846 9.20231 0.5 14.9996 0.5C18.6391 0.5 21.9762 1.79645 24.574 3.95328Z" fill="#F14336"/>
</g>
<defs>
<clipPath id="clip0_1_6014">
<rect width="30" height="30" fill="white" transform="translate(0 0.5)"/>
</clipPath>
</defs>
</svg>
