<svg width="170" height="12" viewBox="0 0 170 12" fill="none" xmlns="http://www.w3.org/2000/svg">
<path d="M0.226497 6L6 11.7735L11.7735 6L6 0.226497L0.226497 6ZM169.773 6L164 0.226497L158.227 6L164 11.7735L169.773 6ZM6 7H9.95V5H6V7ZM17.85 7H25.75V5H17.85V7ZM33.65 7H41.55V5H33.65V7ZM49.45 7H57.35V5H49.45V7ZM65.25 7H73.15V5H65.25V7ZM81.05 7H88.95V5H81.05V7ZM96.85 7H104.75V5H96.85V7ZM112.65 7H120.55V5H112.65V7ZM128.45 7H136.35V5H128.45V7ZM144.25 7H152.15V5H144.25V7ZM160.05 7H164V5H160.05V7Z" fill="#4AB371"/>
</svg>
