<svg width="31" height="31" viewBox="0 0 31 31" fill="none" xmlns="http://www.w3.org/2000/svg">
<g clip-path="url(#clip0_1_6021)">
<path d="M15.5 0.5C7.21566 0.5 0.5 7.21566 0.5 15.5C0.5 23.7843 7.21566 30.4999 15.5 30.4999C23.7843 30.4999 30.5 23.7843 30.5 15.5C30.4999 7.21566 23.7842 0.5 15.5 0.5ZM11.4979 22.7518H8.20455V12.1117H11.4979V22.7518ZM9.83556 10.7184C8.75997 10.7184 7.88802 9.83929 7.88802 8.75509C7.88802 7.67077 8.76009 6.79176 9.83556 6.79176C10.911 6.79176 11.783 7.67077 11.783 8.75509C11.783 9.83935 10.9111 10.7184 9.83556 10.7184ZM23.8399 22.7518H20.5625V17.1666C20.5625 15.6348 19.9807 14.7797 18.7694 14.7797C17.4511 14.7797 16.7624 15.6703 16.7624 17.1666V22.7518H13.6037V12.1117H16.7624V13.5448C16.7624 13.5448 17.7126 11.7872 19.9687 11.7872C22.2249 11.7872 23.84 13.1648 23.84 16.0147L23.8399 22.7518Z" fill="white"/>
</g>
<defs>
<clipPath id="clip0_1_6021">
<rect width="30" height="30" fill="white" transform="translate(0.5 0.5)"/>
</clipPath>
</defs>
</svg>
