<svg width="46" height="48" viewBox="0 0 46 48" fill="none" xmlns="http://www.w3.org/2000/svg">
<path d="M16.2053 0.774194C16.2053 0.979522 16.1237 1.17644 15.9785 1.32163C15.8333 1.46682 15.6364 1.54839 15.4311 1.54839H13.8827C13.6774 1.54839 13.4805 1.46682 13.3353 1.32163C13.1901 1.17644 13.1085 0.979522 13.1085 0.774194C13.1085 0.568865 13.1901 0.371945 13.3353 0.226756C13.4805 0.0815665 13.6774 0 13.8827 0H15.4311C15.6364 0 15.8333 0.0815665 15.9785 0.226756C16.1237 0.371945 16.2053 0.568865 16.2053 0.774194ZM10.7859 0H9.23755C9.03222 0 8.8353 0.0815665 8.69011 0.226756C8.54492 0.371945 8.46335 0.568865 8.46335 0.774194C8.46335 0.979522 8.54492 1.17644 8.69011 1.32163C8.8353 1.46682 9.03222 1.54839 9.23755 1.54839H10.7859C10.9913 1.54839 11.1882 1.46682 11.3334 1.32163C11.4786 1.17644 11.5601 0.979522 11.5601 0.774194C11.5601 0.568865 11.4786 0.371945 11.3334 0.226756C11.1882 0.0815665 10.9913 0 10.7859 0ZM20.0763 0H18.5279C18.3225 0 18.1256 0.0815665 17.9804 0.226756C17.8352 0.371945 17.7537 0.568865 17.7537 0.774194C17.7537 0.979522 17.8352 1.17644 17.9804 1.32163C18.1256 1.46682 18.3225 1.54839 18.5279 1.54839H20.0763C20.2816 1.54839 20.4785 1.46682 20.6237 1.32163C20.7689 1.17644 20.8505 0.979522 20.8505 0.774194C20.8505 0.568865 20.7689 0.371945 20.6237 0.226756C20.4785 0.0815665 20.2816 0 20.0763 0ZM6.14077 0H4.59239C4.38706 0 4.19014 0.0815665 4.04495 0.226756C3.89976 0.371945 3.81819 0.568865 3.81819 0.774194C3.81819 0.979522 3.89976 1.17644 4.04495 1.32163C4.19014 1.46682 4.38706 1.54839 4.59239 1.54839H6.14077C6.3461 1.54839 6.54302 1.46682 6.68821 1.32163C6.8334 1.17644 6.91497 0.979522 6.91497 0.774194C6.91497 0.568865 6.8334 0.371945 6.68821 0.226756C6.54302 0.0815665 6.3461 0 6.14077 0ZM1.27419 5.75148C1.06886 5.75148 0.871945 5.83305 0.726756 5.97824C0.581567 6.12343 0.5 6.32035 0.5 6.52568V8.07406C0.5 8.27939 0.581567 8.47631 0.726756 8.6215C0.871945 8.76669 1.06886 8.84826 1.27419 8.84826C1.47952 8.84826 1.67644 8.76669 1.82163 8.6215C1.96682 8.47631 2.04839 8.27939 2.04839 8.07406V6.52568C2.04839 6.32035 1.96682 6.12343 1.82163 5.97824C1.67644 5.83305 1.47952 5.75148 1.27419 5.75148ZM24.7214 0H23.173C22.9677 0 22.7708 0.0815665 22.6256 0.226756C22.4804 0.371945 22.3988 0.568865 22.3988 0.774194C22.3988 0.979522 22.4804 1.17644 22.6256 1.32163C22.7708 1.46682 22.9677 1.54839 23.173 1.54839H24.7214C24.9267 1.54839 25.1237 1.46682 25.2689 1.32163C25.414 1.17644 25.4956 0.979522 25.4956 0.774194C25.4956 0.568865 25.414 0.371945 25.2689 0.226756C25.1237 0.0815665 24.9267 0 24.7214 0ZM1.27265 1.55071C0.883444 2.07005 0.631062 2.6789 0.53871 3.32129C0.524382 3.422 0.530041 3.52454 0.555364 3.62306C0.580686 3.72158 0.625176 3.81415 0.68629 3.89547C0.747404 3.97678 0.823944 4.04526 0.911536 4.09698C0.999128 4.14871 1.09605 4.18266 1.19677 4.1969C1.23321 4.20188 1.26993 4.20446 1.30671 4.20465C1.49286 4.20427 1.67264 4.13684 1.81312 4.0147C1.9536 3.89257 2.04537 3.7239 2.07161 3.53961C2.12695 3.15502 2.27817 2.79054 2.51135 2.47974C2.57529 2.39865 2.62235 2.30558 2.64977 2.20603C2.67719 2.10647 2.68442 2.00243 2.67103 1.90004C2.65763 1.79765 2.62389 1.69897 2.57179 1.60981C2.51969 1.52066 2.45027 1.44283 2.36764 1.3809C2.285 1.31897 2.19081 1.27421 2.09061 1.24923C1.99041 1.22426 1.88623 1.21958 1.7842 1.23547C1.68217 1.25137 1.58434 1.28752 1.49649 1.34179C1.40864 1.39606 1.33253 1.46658 1.27265 1.55071ZM29.3666 0H27.8182C27.6129 0 27.4159 0.0815665 27.2708 0.226756C27.1256 0.371945 27.044 0.568865 27.044 0.774194C27.044 0.979522 27.1256 1.17644 27.2708 1.32163C27.4159 1.46682 27.6129 1.54839 27.8182 1.54839H29.3666C29.5719 1.54839 29.7688 1.46682 29.914 1.32163C30.0592 1.17644 30.1408 0.979522 30.1408 0.774194C30.1408 0.568865 30.0592 0.371945 29.914 0.226756C29.7688 0.0815665 29.5719 0 29.3666 0ZM44.629 3.09677C44.4237 3.09677 44.2268 3.17834 44.0816 3.32353C43.9364 3.46872 43.8548 3.66564 43.8548 3.87097V5.41935C43.8548 5.62468 43.9364 5.8216 44.0816 5.96679C44.2268 6.11198 44.4237 6.19355 44.629 6.19355C44.8344 6.19355 45.0313 6.11198 45.1765 5.96679C45.3217 5.8216 45.4032 5.62468 45.4032 5.41935V3.87097C45.4032 3.66564 45.3217 3.46872 45.1765 3.32353C45.0313 3.17834 44.8344 3.09677 44.629 3.09677ZM44.629 12.3871C44.4237 12.3871 44.2268 12.4687 44.0816 12.6139C43.9364 12.759 43.8548 12.956 43.8548 13.1613V14.7097C43.8548 14.915 43.9364 15.1119 44.0816 15.2571C44.2268 15.4023 44.4237 15.4839 44.629 15.4839C44.8344 15.4839 45.0313 15.4023 45.1765 15.2571C45.3217 15.1119 45.4032 14.915 45.4032 14.7097V13.1613C45.4032 12.956 45.3217 12.759 45.1765 12.6139C45.0313 12.4687 44.8344 12.3871 44.629 12.3871ZM44.629 7.74194C44.4237 7.74194 44.2268 7.8235 44.0816 7.96869C43.9364 8.11388 43.8548 8.3108 43.8548 8.51613V10.0645C43.8548 10.2698 43.9364 10.4668 44.0816 10.612C44.2268 10.7571 44.4237 10.8387 44.629 10.8387C44.8344 10.8387 45.0313 10.7571 45.1765 10.612C45.3217 10.4668 45.4032 10.2698 45.4032 10.0645V8.51613C45.4032 8.3108 45.3217 8.11388 45.1765 7.96869C45.0313 7.8235 44.8344 7.74194 44.629 7.74194ZM34.0117 0H32.4634C32.258 0 32.0611 0.0815665 31.9159 0.226756C31.7707 0.371945 31.6892 0.568865 31.6892 0.774194C31.6892 0.979522 31.7707 1.17644 31.9159 1.32163C32.0611 1.46682 32.258 1.54839 32.4634 1.54839H34.0117C34.2171 1.54839 34.414 1.46682 34.5592 1.32163C34.7044 1.17644 34.7859 0.979522 34.7859 0.774194C34.7859 0.568865 34.7044 0.371945 34.5592 0.226756C34.414 0.0815665 34.2171 0 34.0117 0ZM38.6569 0H37.1085C36.9032 0 36.7063 0.0815665 36.5611 0.226756C36.4159 0.371945 36.3343 0.568865 36.3343 0.774194C36.3343 0.979522 36.4159 1.17644 36.5611 1.32163C36.7063 1.46682 36.9032 1.54839 37.1085 1.54839H38.6569C38.8622 1.54839 39.0592 1.46682 39.2043 1.32163C39.3495 1.17644 39.4311 0.979522 39.4311 0.774194C39.4311 0.568865 39.3495 0.371945 39.2043 0.226756C39.0592 0.0815665 38.8622 0 38.6569 0ZM43.6257 0.61471C43.0799 0.264279 42.4548 0.0563851 41.8079 0.0100645C41.6036 -0.00215116 41.4026 0.0661293 41.2481 0.200277C41.0935 0.334425 40.9977 0.523769 40.981 0.727742C40.9665 0.932432 41.0339 1.1345 41.1684 1.28954C41.3028 1.44458 41.4933 1.53991 41.6979 1.55458C42.0856 1.58231 42.4602 1.70689 42.7872 1.9169C42.9599 2.02809 43.1697 2.06612 43.3704 2.02264C43.5711 1.97915 43.7464 1.85771 43.8575 1.68503C43.9687 1.51235 44.0068 1.30257 43.9633 1.10185C43.9198 0.901125 43.7984 0.725895 43.6257 0.61471ZM45.1764 18.8075L32.7893 6.42039C32.6441 6.27519 32.4472 6.19359 32.2419 6.19355H16.7581C15.7318 6.19478 14.7479 6.60301 14.0222 7.32869C13.2966 8.05437 12.8883 9.03825 12.8871 10.0645V44.129C12.8883 45.1553 13.2966 46.1392 14.0222 46.8649C14.7479 47.5905 15.7318 47.9988 16.7581 48H41.5323C42.5585 47.9988 43.5424 47.5905 44.2681 46.8649C44.9938 46.1392 45.402 45.1553 45.4032 44.129V19.3548C45.4032 19.1495 45.3216 18.9526 45.1764 18.8075ZM33.0161 8.83664L42.7601 18.5806H35.3387C34.7229 18.58 34.1325 18.3351 33.6971 17.8997C33.2616 17.4643 33.0167 16.8739 33.0161 16.2581V8.83664ZM41.5323 46.4516H16.7581C16.1423 46.451 15.5519 46.2061 15.1164 45.7707C14.681 45.3352 14.4361 44.7448 14.4355 44.129V10.0645C14.4361 9.44872 14.681 8.85832 15.1164 8.42288C15.5519 7.98745 16.1423 7.74255 16.7581 7.74194H31.4677V16.2581C31.469 17.2843 31.8772 18.2682 32.6029 18.9939C33.3286 19.7196 34.3124 20.1278 35.3387 20.129H43.8548V44.129C43.8542 44.7448 43.6093 45.3352 43.1739 45.7707C42.7385 46.2061 42.1481 46.451 41.5323 46.4516ZM36.8871 24.7742C36.8871 24.9795 36.8055 25.1764 36.6603 25.3216C36.5152 25.4668 36.3182 25.5484 36.1129 25.5484H28.371C28.1656 25.5484 27.9687 25.4668 27.8235 25.3216C27.6783 25.1764 27.5968 24.9795 27.5968 24.7742C27.5968 24.5689 27.6783 24.3719 27.8235 24.2268C27.9687 24.0816 28.1656 24 28.371 24H36.1129C36.3182 24 36.5152 24.0816 36.6603 24.2268C36.8055 24.3719 36.8871 24.5689 36.8871 24.7742ZM27.5968 27.871C27.5968 27.6656 27.6783 27.4687 27.8235 27.3235C27.9687 27.1783 28.1656 27.0968 28.371 27.0968H33.0161C33.2215 27.0968 33.4184 27.1783 33.5636 27.3235C33.7088 27.4687 33.7903 27.6656 33.7903 27.871C33.7903 28.0763 33.7088 28.2732 33.5636 28.4184C33.4184 28.5636 33.2215 28.6452 33.0161 28.6452H28.371C28.1656 28.6452 27.9687 28.5636 27.8235 28.4184C27.6783 28.2732 27.5968 28.0763 27.5968 27.871ZM36.8871 35.6129C36.8871 35.8182 36.8055 36.0152 36.6603 36.1603C36.5152 36.3055 36.3182 36.3871 36.1129 36.3871H28.371C28.1656 36.3871 27.9687 36.3055 27.8235 36.1603C27.6783 36.0152 27.5968 35.8182 27.5968 35.6129C27.5968 35.4076 27.6783 35.2107 27.8235 35.0655C27.9687 34.9203 28.1656 34.8387 28.371 34.8387H36.1129C36.3182 34.8387 36.5152 34.9203 36.6603 35.0655C36.8055 35.2107 36.8871 35.4076 36.8871 35.6129ZM33.7903 38.7097C33.7903 38.915 33.7088 39.1119 33.5636 39.2571C33.4184 39.4023 33.2215 39.4839 33.0161 39.4839H28.371C28.1656 39.4839 27.9687 39.4023 27.8235 39.2571C27.6783 39.1119 27.5968 38.915 27.5968 38.7097C27.5968 38.5043 27.6783 38.3074 27.8235 38.1622C27.9687 38.017 28.1656 37.9355 28.371 37.9355H33.0161C33.2215 37.9355 33.4184 38.017 33.5636 38.1622C33.7088 38.3074 33.7903 38.5043 33.7903 38.7097ZM26.7142 27.2292C26.5107 28.0725 26.0301 28.8232 25.3493 29.3609C24.6685 29.8987 23.8269 30.1924 22.9594 30.1951C22.6513 30.1949 22.3444 30.1582 22.045 30.0859C21.5508 29.9669 21.0849 29.7516 20.6739 29.4525C20.2628 29.1534 19.9147 28.7763 19.6495 28.3426C19.3842 27.909 19.2069 27.4273 19.1278 26.9252C19.0487 26.423 19.0692 25.9102 19.1883 25.416C19.3073 24.9218 19.5225 24.4559 19.8217 24.0448C20.1208 23.6338 20.4979 23.2857 20.9316 23.0204C21.3652 22.7552 21.8469 22.5779 22.349 22.4988C22.8512 22.4196 23.364 22.4402 23.8582 22.5592C23.9589 22.5812 24.0542 22.623 24.1385 22.6823C24.2228 22.7416 24.2944 22.8171 24.3492 22.9045C24.4039 22.9918 24.4407 23.0892 24.4573 23.1909C24.4739 23.2926 24.47 23.3966 24.4459 23.4968C24.4217 23.597 24.3779 23.6914 24.3168 23.7744C24.2557 23.8574 24.1787 23.9274 24.0902 23.9803C24.0017 24.0331 23.9035 24.0678 23.8015 24.0822C23.6994 24.0966 23.5955 24.0905 23.4959 24.0643C23.0493 23.9566 22.5809 23.9837 22.1497 24.1423C21.7186 24.3008 21.3442 24.5836 21.0738 24.955C20.8034 25.3263 20.6492 25.7695 20.6307 26.2285C20.6122 26.6874 20.7301 27.1416 20.9697 27.5335C21.2093 27.9254 21.5598 28.2375 21.9767 28.4303C22.3937 28.6231 22.8584 28.6879 23.3122 28.6165C23.766 28.5451 24.1884 28.3408 24.526 28.0294C24.8637 27.7179 25.1014 27.3134 25.2092 26.8668C25.233 26.768 25.276 26.6747 25.3358 26.5925C25.3956 26.5103 25.471 26.4406 25.5578 26.3875C25.6445 26.3344 25.7409 26.2989 25.8413 26.2831C25.9418 26.2672 26.0444 26.2713 26.1432 26.2951C26.2421 26.3189 26.3353 26.3619 26.4176 26.4217C26.4998 26.4816 26.5695 26.557 26.6225 26.6437C26.6756 26.7305 26.7111 26.8268 26.727 26.9272C26.7428 27.0277 26.738 27.1303 26.7142 27.2292ZM26.7142 17.1646C26.5107 18.008 26.0301 18.7587 25.3493 19.2964C24.6685 19.8342 23.8269 20.1279 22.9594 20.1306C22.6513 20.1304 22.3444 20.0937 22.045 20.0214C21.5508 19.9024 21.0849 19.6871 20.6739 19.388C20.2628 19.0889 19.9147 18.7118 19.6495 18.2781C19.3842 17.8445 19.2069 17.3628 19.1278 16.8607C19.0487 16.3585 19.0692 15.8457 19.1883 15.3515C19.3073 14.8573 19.5225 14.3914 19.8217 13.9803C20.1208 13.5693 20.4979 13.2212 20.9316 12.9559C21.3652 12.6906 21.8469 12.5134 22.349 12.4342C22.8512 12.3551 23.364 12.3757 23.8582 12.4947C23.9589 12.5167 24.0542 12.5585 24.1385 12.6178C24.2228 12.6771 24.2944 12.7526 24.3492 12.84C24.4039 12.9273 24.4407 13.0247 24.4573 13.1264C24.4739 13.2281 24.47 13.3321 24.4459 13.4323C24.4217 13.5325 24.3779 13.6269 24.3168 13.7099C24.2557 13.7929 24.1787 13.8629 24.0902 13.9158C24.0017 13.9686 23.9035 14.0033 23.8015 14.0177C23.6994 14.0321 23.5955 14.026 23.4959 13.9997C23.0493 13.8921 22.5809 13.9192 22.1497 14.0777C21.7186 14.2363 21.3442 14.5191 21.0738 14.8904C20.8034 15.2618 20.6492 15.705 20.6307 16.1639C20.6122 16.6229 20.7301 17.0771 20.9697 17.469C21.2093 17.8609 21.5598 18.173 21.9767 18.3658C22.3937 18.5585 22.8584 18.6233 23.3122 18.552C23.766 18.4806 24.1884 18.2763 24.526 17.9649C24.8637 17.6534 25.1014 17.2489 25.2092 16.8023C25.233 16.7034 25.276 16.6102 25.3358 16.528C25.3956 16.4457 25.471 16.3761 25.5578 16.323C25.6445 16.2699 25.7409 16.2344 25.8413 16.2186C25.9418 16.2027 26.0444 16.2068 26.1432 16.2306C26.2421 16.2544 26.3353 16.2974 26.4176 16.3572C26.4998 16.417 26.5695 16.4925 26.6225 16.5792C26.6756 16.6659 26.7111 16.7623 26.727 16.8627C26.7428 16.9632 26.738 17.0658 26.7142 17.1646ZM26.7142 38.0679C26.5107 38.9112 26.0301 39.6619 25.3493 40.1997C24.6685 40.7374 23.8269 41.0311 22.9594 41.0338C22.6513 41.0336 22.3444 40.997 22.045 40.9246C21.5508 40.8056 21.0849 40.5904 20.6739 40.2912C20.2628 39.9921 19.9147 39.615 19.6495 39.1813C19.3842 38.7477 19.2069 38.266 19.1278 37.7639C19.0487 37.2617 19.0692 36.7489 19.1883 36.2547C19.3073 35.7605 19.5225 35.2946 19.8217 34.8835C20.1208 34.4725 20.4979 34.1244 20.9316 33.8591C21.3652 33.5939 21.8469 33.4166 22.349 33.3375C22.8512 33.2583 23.364 33.2789 23.8582 33.3979C23.9589 33.4199 24.0542 33.4618 24.1385 33.521C24.2228 33.5803 24.2944 33.6558 24.3492 33.7432C24.4039 33.8305 24.4407 33.9279 24.4573 34.0296C24.4739 34.1313 24.47 34.2353 24.4459 34.3355C24.4217 34.4357 24.3779 34.5301 24.3168 34.6131C24.2557 34.6962 24.1787 34.7661 24.0902 34.819C24.0017 34.8718 23.9035 34.9065 23.8015 34.9209C23.6994 34.9353 23.5955 34.9292 23.4959 34.903C23.0493 34.7953 22.5809 34.8224 22.1497 34.981C21.7186 35.1395 21.3442 35.4223 21.0738 35.7937C20.8034 36.165 20.6492 36.6082 20.6307 37.0672C20.6122 37.5262 20.7301 37.9803 20.9697 38.3722C21.2093 38.7642 21.5598 39.0762 21.9767 39.269C22.3937 39.4618 22.8584 39.5266 23.3122 39.4552C23.766 39.3838 24.1884 39.1795 24.526 38.8681C24.8637 38.5567 25.1014 38.1521 25.2092 37.7055C25.233 37.6067 25.276 37.5135 25.3358 37.4312C25.3956 37.349 25.471 37.2793 25.5578 37.2262C25.6445 37.1731 25.7409 37.1376 25.8413 37.1218C25.9418 37.1059 26.0444 37.11 26.1432 37.1338C26.2421 37.1576 26.3353 37.2006 26.4176 37.2604C26.4998 37.3203 26.5695 37.3957 26.6225 37.4824C26.6756 37.5692 26.7111 37.6655 26.727 37.766C26.7428 37.8664 26.738 37.969 26.7142 38.0679ZM7.08065 6.19355C5.95171 6.19478 4.86937 6.64379 4.0711 7.44206C3.27282 8.24034 2.82381 9.32268 2.82258 10.4516V12.497C2.1595 12.6677 1.57176 13.0535 1.15146 13.594C0.731156 14.1345 0.502037 14.7992 0.5 15.4839V19.3548C0.5 19.5602 0.581567 19.7571 0.726756 19.9023C0.871945 20.0475 1.06886 20.129 1.27419 20.129C1.47952 20.129 1.67644 20.0475 1.82163 19.9023C1.96682 19.7571 2.04839 19.5602 2.04839 19.3548V15.4839C2.0492 15.2133 2.12116 14.9477 2.25705 14.7137C2.39294 14.4797 2.58797 14.2855 2.82258 14.1507V41.8064L2.8249 41.8165C2.82683 41.9067 2.84465 41.9958 2.87755 42.0797C2.88606 42.1022 2.8969 42.1215 2.90697 42.1432C2.91823 42.1711 2.93116 42.1982 2.94568 42.2245L6.42955 47.6439C6.49966 47.7529 6.59602 47.8425 6.70977 47.9046C6.82353 47.9667 6.95105 47.9992 7.08065 47.9992C7.21024 47.9992 7.33776 47.9667 7.45152 47.9046C7.56527 47.8425 7.66163 47.7529 7.73174 47.6439L11.2156 42.2245C11.2301 42.1982 11.243 42.1711 11.2543 42.1432C11.2644 42.1215 11.2752 42.1022 11.2837 42.0797C11.3166 41.9958 11.3344 41.9067 11.3364 41.8165L11.3387 41.8064V10.4516C11.3375 9.32268 10.8885 8.24034 10.0902 7.44206C9.29192 6.64379 8.20958 6.19478 7.08065 6.19355ZM4.37097 13.9355H9.79032V41.0323H4.37097V13.9355ZM7.08065 7.74194C7.79904 7.74275 8.48779 8.0285 8.99577 8.53649C9.50376 9.04447 9.7895 9.73321 9.79032 10.4516V12.3871H4.37097V10.4516C4.37179 9.73321 4.65753 9.04447 5.16552 8.53649C5.6735 8.0285 6.36225 7.74275 7.08065 7.74194ZM7.08065 45.7935L5.0151 42.5806H9.14619L7.08065 45.7935Z" fill="#FE363A"/>
<path d="M22.9529 27.8713C22.8513 27.8714 22.7506 27.8514 22.6566 27.8125C22.5627 27.7735 22.4774 27.7164 22.4056 27.6444L21.6314 26.8703C21.4904 26.7242 21.4123 26.5287 21.4141 26.3257C21.4159 26.1227 21.4973 25.9285 21.6408 25.785C21.7844 25.6414 21.9785 25.56 22.1815 25.5582C22.3845 25.5565 22.5801 25.6345 22.7261 25.7755L22.9529 26.0024L24.7282 24.2272C24.8742 24.0861 25.0697 24.0081 25.2727 24.0099C25.4757 24.0116 25.6699 24.093 25.8134 24.2366C25.957 24.3801 26.0384 24.5743 26.0402 24.7773C26.0419 24.9803 25.9639 25.1758 25.8229 25.3219L23.5003 27.6444C23.4285 27.7164 23.3432 27.7735 23.2492 27.8125C23.1553 27.8514 23.0546 27.8714 22.9529 27.8713ZM23.5003 17.5799L25.8229 15.2573C25.9639 15.1113 26.0419 14.9158 26.0402 14.7128C26.0384 14.5098 25.957 14.3156 25.8134 14.1721C25.6699 14.0285 25.4757 13.9471 25.2727 13.9453C25.0697 13.9436 24.8742 14.0216 24.7282 14.1626L22.9529 15.9379L22.7261 15.711C22.5801 15.57 22.3845 15.492 22.1815 15.4937C21.9785 15.4955 21.7844 15.5769 21.6408 15.7205C21.4973 15.864 21.4159 16.0582 21.4141 16.2612C21.4123 16.4642 21.4904 16.6597 21.6314 16.8057L22.4056 17.5799C22.5508 17.7251 22.7476 17.8066 22.9529 17.8066C23.1582 17.8066 23.3551 17.7251 23.5003 17.5799ZM23.5003 38.4832L25.8229 36.1606C25.9639 36.0146 26.0419 35.819 26.0402 35.616C26.0384 35.413 25.957 35.2188 25.8134 35.0753C25.6699 34.9317 25.4757 34.8503 25.2727 34.8486C25.0697 34.8468 24.8742 34.9248 24.7282 35.0659L22.9529 36.8411L22.7261 36.6142C22.5801 36.4732 22.3845 36.3952 22.1815 36.397C21.9785 36.3987 21.7844 36.4801 21.6408 36.6237C21.4973 36.7672 21.4159 36.9614 21.4141 37.1644C21.4123 37.3674 21.4904 37.5629 21.6314 37.709L22.4056 38.4832C22.5508 38.6283 22.7476 38.7098 22.9529 38.7098C23.1582 38.7098 23.3551 38.6283 23.5003 38.4832Z" fill="#FE363A"/>
</svg>
