<svg width="52" height="46" viewBox="0 0 52 46" fill="none" xmlns="http://www.w3.org/2000/svg">
<path d="M50.9997 44.3531L31.6139 12.8588V8.235V0.915C31.6139 0.4087 31.2052 0 30.6989 0H20.9389C20.6034 0 20.2923 0.183 20.1337 0.4819C19.9751 0.7808 19.9934 1.1407 20.1764 1.4213L22.2809 4.575L20.1764 7.7287C19.9873 8.0093 19.969 8.3692 20.1337 8.6681C20.2923 8.967 20.6034 9.15 20.9389 9.15H29.7839V12.8588L21.0731 27.0108L16.8458 19.9592C16.6811 19.6847 16.3822 19.5139 16.0589 19.5139C15.7356 19.5139 15.4367 19.6847 15.272 19.9592L0.632006 44.3592C0.461206 44.6398 0.455106 44.9936 0.619806 45.2803C0.784506 45.5731 1.08951 45.75 1.41891 45.75H11.1789H50.2189C50.5483 45.75 50.8533 45.5731 51.018 45.2803C51.1766 44.9936 51.1705 44.6398 50.9997 44.3531ZM30.6989 14.8596L34.1088 20.3984L30.6989 22.9543L27.289 20.3984L30.6989 14.8596ZM22.6469 7.32L24.1414 5.0813C24.3488 4.7763 24.3488 4.3737 24.1414 4.0687L22.6469 1.83H29.7839V7.32H22.6469ZM16.0589 22.2162L19.9934 28.7676L10.6665 43.92H3.03541L16.0589 22.2162ZM12.8137 43.92L26.3252 21.9661L30.1499 24.8331C30.3146 24.9551 30.5037 25.0161 30.6989 25.0161C30.8941 25.0161 31.0832 24.9551 31.2479 24.8331L35.0726 21.9661L48.5841 43.92H12.8137Z" fill="#FEBF00"/>
</svg>
