<svg width="55" height="48" viewBox="0 0 55 48" fill="none" xmlns="http://www.w3.org/2000/svg">
<path d="M54.4494 42.7996C54.4418 42.6457 54.397 42.486 54.2884 42.339L47.8988 33.7171V11.2315C47.8988 9.16861 46.2203 7.49016 44.1565 7.49016H42.5027V2.79471C42.5027 1.2537 41.249 0 39.708 0H29.1942C26.2982 0 23.9423 2.35594 23.9423 5.25194V7.49016H10.8052C8.74222 7.49016 7.06377 9.16861 7.06377 11.2315V33.7171L0.67417 42.339C0.544215 42.5148 0.485298 42.8201 0.50311 43.2007C0.581737 44.873 2.14288 48 5.67421 48H49.295C52.2934 48.0001 54.5702 45.4275 54.4494 42.7996ZM3.02758 41.9949L8.33149 34.8389H46.6312L51.9351 41.9949H3.02758ZM13.0718 33.153C13.4859 30.0343 16.1529 27.6179 19.3786 27.6179C22.6088 27.6179 25.2796 30.0342 25.6943 33.153H13.0718ZM25.6282 5.25184C25.6282 3.28523 27.2276 1.68583 29.1942 1.68583H39.708C40.3197 1.68583 40.8169 2.18299 40.8169 2.79471V7.61864C40.8169 9.58524 39.2175 11.1846 37.2509 11.1846H28.1588C27.8575 11.1846 27.5785 11.346 27.4278 11.6078L25.6283 14.7367V5.25184H25.6282ZM8.7496 11.2315C8.7496 10.098 9.67161 9.17609 10.8051 9.17609H23.9423V15.066C23.9423 16.701 26.1105 17.28 26.9256 15.8628L28.6461 12.8705H37.2509C39.6048 12.8705 41.6018 11.3139 42.267 9.17599H44.1566C45.2902 9.17599 46.2129 10.098 46.2129 11.2314V33.1529H27.3978C26.975 29.101 23.5407 25.9319 19.3786 25.9319C15.2218 25.9319 11.7907 29.101 11.3684 33.1529H8.7496V11.2315ZM49.295 46.3142H5.67421C4.04878 46.3142 2.68093 45.1928 2.30277 43.6841H52.6664C52.2882 45.1928 50.9203 46.3142 49.295 46.3142Z" fill="#4AB371"/>
<path d="M36.9395 37.575H18.0227C17.5567 37.575 17.1797 37.952 17.1797 38.418C17.1797 38.884 17.5567 39.261 18.0227 39.261H36.9396C37.4055 39.261 37.7825 38.884 37.7825 38.418C37.7825 37.952 37.4054 37.575 36.9395 37.575ZM19.3825 24.1382C21.3515 24.1382 22.9534 22.5362 22.9534 20.5672V18.5174C22.9534 16.5484 21.3515 14.9465 19.3825 14.9465C17.4135 14.9465 15.8115 16.5484 15.8115 18.5174V20.5672C15.8115 22.5362 17.4135 24.1382 19.3825 24.1382ZM17.4975 18.5174C17.4975 17.4778 18.3428 16.6323 19.3826 16.6323C20.4222 16.6323 21.2677 17.4777 21.2677 18.5174V20.5672C21.2677 21.6068 20.4223 22.4523 19.3826 22.4523C18.343 22.4523 17.4975 21.6069 17.4975 20.5672V18.5174ZM29.0468 5.558H37.3972C37.8632 5.558 38.2402 5.181 38.2402 4.71504C38.2402 4.24908 37.8632 3.87207 37.3972 3.87207H29.0468C28.5808 3.87207 28.2038 4.24908 28.2038 4.71504C28.2038 5.181 28.5808 5.558 29.0468 5.558ZM29.0468 8.99806H35.2388C35.7047 8.99806 36.0817 8.62106 36.0817 8.1551C36.0817 7.68914 35.7047 7.31213 35.2388 7.31213H29.0468C28.5808 7.31213 28.2038 7.68914 28.2038 8.1551C28.2038 8.62106 28.5808 8.99806 29.0468 8.99806Z" fill="#4AB371"/>
</svg>
