<svg width="62" height="48" viewBox="0 0 62 48" fill="none" xmlns="http://www.w3.org/2000/svg">
<path d="M23.9899 0V20.4255H25.0111L22.9686 32.5542L22.8399 33.5755H23.0319V33.6368L24.0532 33.8308C25.1976 34.0638 26.225 34.6882 26.959 35.5966C27.6929 36.505 28.0875 37.6407 28.075 38.8085V39.8298H34.2026V38.8085C34.2026 36.3023 35.998 34.2863 38.3511 33.8288L39.309 33.6409V33.5755H39.501L39.309 32.5542L37.2665 20.4255H38.2877V0H23.9899ZM26.0324 2.04255H36.2452V14.2979H26.0324V2.04255ZM1.26647 11.234C1.04177 11.2919 0.843479 11.4246 0.704256 11.6103C0.565032 11.7959 0.493173 12.0234 0.500511 12.2553V16.3404C0.500511 16.6113 0.60811 16.8711 0.799636 17.0626C0.991163 17.2541 1.25093 17.3617 1.52179 17.3617H2.60638C2.63294 29.3311 10.0678 39.697 20.6707 43.9149H6.62817V42.8936C6.62817 42.6228 6.52057 42.363 6.32905 42.1715C6.13752 41.9799 5.87775 41.8723 5.60689 41.8723H1.52179C1.50069 41.8717 1.47957 41.8717 1.45847 41.8723C1.19873 41.8885 0.95495 42.0032 0.776913 42.193C0.598875 42.3828 0.500011 42.6334 0.500511 42.8936V46.9787C0.500511 47.2496 0.60811 47.5093 0.799636 47.7009C0.991163 47.8924 1.25093 48 1.52179 48H5.60689C5.87775 48 6.13752 47.8924 6.32905 47.7009C6.52057 47.5093 6.62817 47.2496 6.62817 46.9787V45.9574H28.075V46.9787C28.075 47.2496 28.1826 47.5093 28.3741 47.7009C28.5656 47.8924 28.8254 48 29.0963 48H33.1814C33.4522 48 33.712 47.8924 33.9035 47.7009C34.095 47.5093 34.2026 47.2496 34.2026 46.9787V45.9574H55.6494V46.9787C55.6494 47.2496 55.757 47.5093 55.9486 47.7009C56.1401 47.8924 56.3999 48 56.6707 48H60.7558C61.0267 48 61.2865 47.8924 61.478 47.7009C61.6695 47.5093 61.7771 47.2496 61.7771 46.9787V42.8936C61.7771 42.6228 61.6695 42.363 61.478 42.1715C61.2865 41.9799 61.0267 41.8723 60.7558 41.8723H56.6707C56.6496 41.8717 56.6285 41.8717 56.6074 41.8723C56.3477 41.8885 56.1039 42.0032 55.9258 42.193C55.7478 42.3828 55.6489 42.6334 55.6494 42.8936V43.9149H41.6702C52.2833 39.7052 59.708 29.3433 59.7346 17.3617H60.7558C61.0267 17.3617 61.2865 17.2541 61.478 17.0626C61.6695 16.8711 61.7771 16.6113 61.7771 16.3404V12.2553C61.7771 11.9845 61.6695 11.7247 61.478 11.5332C61.2865 11.3416 61.0267 11.234 60.7558 11.234H56.6707C56.6496 11.2334 56.6285 11.2334 56.6074 11.234C56.3477 11.2502 56.1039 11.3649 55.9258 11.5547C55.7478 11.7445 55.6489 11.9951 55.6494 12.2553V16.3404C55.6494 16.6113 55.757 16.8711 55.9486 17.0626C56.1401 17.2541 56.3999 17.3617 56.6707 17.3617H57.692C57.6805 23.8622 55.2817 30.1321 50.9513 34.9802C46.6209 39.8284 40.6606 42.9171 34.2026 43.6596V42.8936C34.2026 42.6228 34.095 42.363 33.9035 42.1715C33.712 41.9799 33.4522 41.8723 33.1814 41.8723H29.0963C29.0752 41.8717 29.054 41.8717 29.0329 41.8723C28.7732 41.8885 28.5294 42.0032 28.3514 42.193C28.1733 42.3828 28.0745 42.6334 28.075 42.8936V43.6596C21.6267 42.9069 15.6791 39.8132 11.3608 34.9656C7.04259 30.118 4.6542 23.8538 4.64894 17.3617H5.60689C5.87775 17.3617 6.13752 17.2541 6.32905 17.0626C6.52057 16.8711 6.62817 16.6113 6.62817 16.3404V12.2553C6.62817 11.9845 6.52057 11.7247 6.32905 11.5332C6.13752 11.3416 5.87775 11.234 5.60689 11.234H1.52179C1.50069 11.2334 1.47957 11.2334 1.45847 11.234C1.39461 11.228 1.33033 11.228 1.26647 11.234ZM2.54306 13.2766H4.58562V15.3191H2.54306V13.2766ZM57.692 13.2766H59.7346V15.3191H57.692V13.2766ZM26.0324 16.3404H36.2452V18.383H26.0324V16.3404ZM27.117 20.4255H35.2239V20.6175L37.1398 31.9782C35.6955 32.4461 34.4361 33.3586 33.5417 34.5854C32.6473 35.8122 32.1637 37.2903 32.1601 38.8085V33.5734C33.357 33.1568 34.2026 31.97 34.2026 30.6383C34.2026 28.9573 32.8178 27.5745 31.1388 27.5745C29.4598 27.5745 28.075 28.9573 28.075 30.6383C28.075 31.97 28.9206 33.1568 30.1175 33.5755V38.8085C30.114 37.2978 29.6295 35.8275 28.7341 34.6108C27.8387 33.3941 26.5791 32.4942 25.1378 32.0415L27.0537 20.6196L27.117 20.4276V20.4255ZM31.1388 29.617C31.7148 29.617 32.1601 30.0623 32.1601 30.6383C32.1601 31.2143 31.7148 31.6596 31.1388 31.6596C31.0042 31.6615 30.8705 31.6364 30.7457 31.5858C30.6209 31.5351 30.5076 31.46 30.4124 31.3647C30.3171 31.2695 30.242 31.1562 30.1913 31.0314C30.1407 30.9066 30.1156 30.7729 30.1175 30.6383C30.1175 30.0623 30.5628 29.617 31.1388 29.617ZM2.54306 43.9149H4.58562V45.9574H2.54306V43.9149ZM30.1175 43.9149H32.1601V45.9574H30.1175V43.9149ZM57.692 43.9149H59.7346V45.9574H57.692V43.9149Z" fill="#004B96"/>
</svg>
