<svg width="49" height="48" viewBox="0 0 49 48" fill="none" xmlns="http://www.w3.org/2000/svg">
<path d="M47.7333 26.6642H46.1013C45.7728 21.3755 41.6956 17.0944 36.4945 16.4564C39.0684 14.9025 40.8003 12.0863 40.8003 8.86754C40.8003 3.97855 36.8217 0 31.9314 0C27.041 0 23.0638 3.97855 23.0638 8.86754C23.0638 12.0876 24.7943 14.9025 27.3682 16.4564C22.1671 17.0944 18.09 21.3755 17.7614 26.6642H15.5599V19.7052C15.5599 19.3273 15.2532 19.0206 14.8754 19.0206H10.9967V16.2825C10.9967 15.9046 10.6901 15.5979 10.3122 15.5979H6.43223V14.0577C6.43223 13.6799 6.12555 13.3732 5.74769 13.3732H1.18454C0.806674 13.3732 0.5 13.6799 0.5 14.0577V27.3488V34.4228C0.5 34.8007 0.806674 35.1074 1.18454 35.1074H5.06315V47.3155C5.06315 47.6933 5.36982 48 5.74769 48H43.1701C43.548 48 43.8547 47.6933 43.8547 47.3155V35.1074H47.7333C48.1112 35.1074 48.4178 34.8007 48.4178 34.4228V27.3488C48.4178 26.9709 48.1112 26.6642 47.7333 26.6642ZM24.4329 8.86617C24.4329 4.73155 27.7967 1.36771 31.9314 1.36771C36.0674 1.36771 39.4312 4.73155 39.4312 8.86617C39.4312 13.0008 36.0674 16.3646 31.9314 16.3646C27.7967 16.366 24.4329 13.0022 24.4329 8.86617ZM28.7113 17.7351H35.1514C40.2225 17.7351 44.39 21.6821 44.7419 26.6642H19.1209C19.4714 21.6808 23.6388 17.7351 28.7113 17.7351ZM6.43223 26.6642V19.4478H9.62766V19.7052V26.6642H6.43223ZM1.86908 26.6642V17.1382H5.06315V26.6642H1.86908ZM10.9967 22.8842H14.1908V26.6642H10.9967V22.8842ZM14.1908 20.3897V21.5151H10.9967V20.3897H14.1908ZM9.62766 18.0801H6.43223V16.967H9.62766V18.0801ZM5.06315 14.7423V15.7691H1.86908V14.7423H5.06315ZM42.4856 46.6309H6.43223V35.1074H42.4856V46.6309ZM47.0488 33.7383H43.1701H5.74769H1.86908V28.0333H5.74769H10.3122H14.8754H18.4117H45.451H47.0488V33.7383Z" fill="#4AB371"/>
</svg>
