<svg width="47" height="46" viewBox="0 0 47 46" fill="none" xmlns="http://www.w3.org/2000/svg">
<g clip-path="url(#clip0_1_6981)">
<path d="M18.3184 14.238H5.25156C2.63531 14.238 0.507812 12.1105 0.507812 9.49426V7.46738C0.507812 4.85113 2.63531 2.72363 5.25156 2.72363H25.7431C26.1312 2.72363 26.4403 3.0327 26.4403 3.42082C26.4403 3.80895 26.1312 4.11801 25.7431 4.11801H5.25156C3.40437 4.11801 1.90219 5.6202 1.90219 7.46738V9.49426C1.90219 11.3414 3.40437 12.8436 5.25156 12.8436H18.3184C18.5033 12.8436 18.6807 12.9171 18.8114 13.0478C18.9422 13.1786 19.0156 13.3559 19.0156 13.5408C19.0156 13.7257 18.9422 13.9031 18.8114 14.0338C18.6807 14.1646 18.5033 14.238 18.3184 14.238Z" fill="#FEBF00"/>
<path d="M23.6089 9.86096C23.2496 9.86096 22.9405 9.58064 22.9118 9.22127C22.7464 7.17283 23.2064 5.11002 24.263 3.09752C24.4427 2.7597 24.8667 2.63033 25.2046 2.80283C25.5424 2.98252 25.6789 3.40658 25.4992 3.74439C24.5505 5.54127 24.1624 7.29502 24.3061 9.10627C24.3349 9.48721 24.0474 9.82502 23.6664 9.85377C23.6449 9.86096 23.6233 9.86096 23.6089 9.86096Z" fill="#FEBF00"/>
<path d="M23.7091 7.5184H5.30906C4.92094 7.5184 4.61187 7.20934 4.61187 6.82121C4.61187 6.43309 4.92094 6.12402 5.30906 6.12402H23.7091C23.894 6.12402 24.0713 6.19748 24.2021 6.32822C24.3328 6.45897 24.4062 6.6363 24.4062 6.82121C24.4062 7.00612 24.3328 7.18345 24.2021 7.3142C24.0713 7.44494 23.894 7.5184 23.7091 7.5184ZM21.6606 10.8318H5.30906C4.92094 10.8318 4.61187 10.5228 4.61187 10.1346C4.61187 9.74652 4.92094 9.43746 5.30906 9.43746H21.6606C22.0487 9.43746 22.3578 9.74652 22.3578 10.1346C22.3578 10.5228 22.0487 10.8318 21.6606 10.8318ZM17.8153 24.3587H5.25156C2.63531 24.3587 0.507812 22.2312 0.507812 19.615V17.5881C0.507812 14.9718 2.63531 12.8443 5.25156 12.8443C5.63969 12.8443 5.94875 13.1534 5.94875 13.5415C5.94875 13.9296 5.63969 14.2387 5.25156 14.2387C3.40438 14.2387 1.90219 15.7409 1.90219 17.5881V19.615C1.90219 21.4621 3.40438 22.9643 5.25156 22.9643H17.8225C18.2106 22.9643 18.5197 23.2734 18.5197 23.6615C18.5197 24.0496 18.2034 24.3587 17.8153 24.3587Z" fill="#FEBF00"/>
<path d="M16.9809 17.6385H5.30844C4.92031 17.6385 4.61125 17.3295 4.61125 16.9413C4.61125 16.5532 4.92031 16.2441 5.30844 16.2441H16.9809C17.3691 16.2441 17.6781 16.5532 17.6781 16.9413C17.6781 17.3295 17.3691 17.6385 16.9809 17.6385ZM16.83 20.952H5.30844C4.92031 20.952 4.61125 20.6429 4.61125 20.2548C4.61125 19.8666 4.92031 19.5576 5.30844 19.5576H16.83C17.2181 19.5576 17.5272 19.8666 17.5272 20.2548C17.5272 20.6429 17.2181 20.952 16.83 20.952ZM25.7353 43.2763H5.24375C2.6275 43.2763 0.5 41.1488 0.5 38.5326V36.5057C0.5 33.8895 2.6275 31.762 5.24375 31.762H25.7353C26.1234 31.762 26.4325 32.071 26.4325 32.4591C26.4325 32.8473 26.1234 33.1563 25.7353 33.1563H5.24375C3.39656 33.1563 1.89437 34.6585 1.89437 36.5057V38.5326C1.89437 40.3798 3.39656 41.882 5.24375 41.882H25.7353C26.1234 41.882 26.4325 42.191 26.4325 42.5791C26.4325 42.9673 26.1234 43.2763 25.7353 43.2763Z" fill="#FEBF00"/>
<path d="M24.8794 43.2757C24.6279 43.2757 24.3763 43.1392 24.2541 42.8948C22.4141 39.2507 22.4141 35.6282 24.2613 32.1351C24.441 31.7973 24.865 31.6679 25.2029 31.8476C25.5407 32.0273 25.6772 32.4514 25.4904 32.7892C23.8444 35.9014 23.8444 39.0064 25.4975 42.2695C25.5507 42.3752 25.576 42.4927 25.5709 42.6109C25.5659 42.7291 25.5308 42.844 25.4689 42.9448C25.4069 43.0457 25.3203 43.129 25.2171 43.1869C25.114 43.2448 24.9977 43.2754 24.8794 43.2757Z" fill="#FEBF00"/>
<path d="M23.7066 36.5561H5.30656C4.91844 36.5561 4.60938 36.247 4.60938 35.8589C4.60938 35.4707 4.91844 35.1617 5.30656 35.1617H23.7066C23.8915 35.1617 24.0688 35.2351 24.1996 35.3659C24.3303 35.4966 24.4038 35.674 24.4038 35.8589C24.4038 36.0438 24.3303 36.2211 24.1996 36.3519C24.0688 36.4826 23.8915 36.5561 23.7066 36.5561ZM23.7209 39.8695H5.30656C4.91844 39.8695 4.60938 39.5604 4.60938 39.1723C4.60938 38.7842 4.91844 38.4751 5.30656 38.4751H23.7281C24.1163 38.4751 24.4253 38.7842 24.4253 39.1723C24.4253 39.5604 24.1091 39.8695 23.7209 39.8695ZM29.0109 33.1564H11.0422C8.79969 33.1564 6.97406 31.3307 6.97406 29.0882V27.0398C6.97406 24.7973 8.79969 22.9717 11.0422 22.9717H17.8128C18.2009 22.9717 18.51 23.2807 18.51 23.6689C18.51 24.057 18.2009 24.3661 17.8128 24.3661H11.0422C9.56875 24.3661 8.36844 25.5664 8.36844 27.0398V29.0882C8.36844 30.5617 9.56875 31.762 11.0422 31.762H29.0109C29.1958 31.762 29.3732 31.8354 29.5039 31.9662C29.6347 32.0969 29.7081 32.2743 29.7081 32.4592C29.7081 32.6441 29.6347 32.8214 29.5039 32.9522C29.3732 33.0829 29.1958 33.1564 29.0109 33.1564Z" fill="#FEBF00"/>
<path d="M28.2641 33.1555C28.0125 33.1555 27.7681 33.019 27.6459 32.7746C27.1428 31.7827 26.7906 30.7765 26.5966 29.7702C26.5717 29.5932 26.6159 29.4134 26.7201 29.268C26.8243 29.1227 26.9804 29.0231 27.156 28.9898C27.3317 28.9565 27.5134 28.9922 27.6635 29.0893C27.8136 29.1864 27.9206 29.3376 27.9622 29.5115C28.1275 30.3884 28.4366 31.2724 28.8822 32.1421C28.9653 32.3062 28.9802 32.4964 28.9237 32.6715C28.8671 32.8465 28.7437 32.992 28.5803 33.0765C28.4797 33.134 28.3719 33.1555 28.2641 33.1555ZM19.9409 27.3121H11.2441C10.8559 27.3121 10.5469 27.003 10.5469 26.6149C10.5469 26.2268 10.8559 25.9177 11.2441 25.9177H19.9409C20.3291 25.9177 20.6381 26.2268 20.6381 26.6149C20.6381 27.003 20.3291 27.3121 19.9409 27.3121ZM25.6263 30.1943H11.2441C10.8559 30.1943 10.5469 29.8852 10.5469 29.4971C10.5469 29.109 10.8559 28.7999 11.2441 28.7999H25.6263C26.0144 28.7999 26.3234 29.109 26.3234 29.4971C26.3234 29.8852 26.0144 30.1943 25.6263 30.1943ZM27.3441 27.2187C25.1663 27.2187 23.1106 26.3705 21.5725 24.8252C18.3884 21.6412 18.3884 16.4662 21.5725 13.2821C23.1106 11.744 25.1663 10.8887 27.3441 10.8887C29.5219 10.8887 31.5775 11.7368 33.1156 13.2821C36.2997 16.4662 36.2997 21.6412 33.1156 24.8252C31.5703 26.3705 29.5219 27.2187 27.3441 27.2187ZM22.5572 23.8405C23.1841 24.4716 23.93 24.9719 24.7517 25.3124C25.5734 25.6529 26.4546 25.8269 27.3441 25.8243C29.1553 25.8243 30.8516 25.1199 32.1309 23.8405C34.7688 21.2027 34.7688 16.9046 32.1309 14.2668C31.5041 13.6358 30.7581 13.1355 29.9364 12.795C29.1147 12.4544 28.2335 12.2804 27.3441 12.283C25.5328 12.283 23.8366 12.9874 22.5572 14.2668C19.9122 16.9118 19.9122 21.2027 22.5572 23.8405Z" fill="#FEBF00"/>
<path d="M27.3436 30.3242C24.4542 30.3242 21.572 29.2245 19.3727 27.0251C17.2452 24.8976 16.0664 22.0657 16.0664 19.0542C16.0664 16.0426 17.238 13.2107 19.3727 11.0832C23.7714 6.68449 30.923 6.68449 35.3217 11.0832C39.7205 15.482 39.7205 22.6336 35.3217 27.0323C34.2736 28.0785 33.0294 28.9078 31.6604 29.4726C30.2915 30.0375 28.8245 30.3269 27.3436 30.3242ZM27.3436 9.17855C24.8136 9.17855 22.2836 10.1417 20.3573 12.0679C18.4886 13.9367 17.4608 16.4164 17.4608 19.0542C17.4608 21.692 18.4886 24.1789 20.3573 26.0404C24.2098 29.8929 30.4773 29.8929 34.3298 26.0404C38.1823 22.1879 38.1823 15.9204 34.3298 12.0679C32.4036 10.1417 29.8736 9.17855 27.3436 9.17855ZM42.5811 38.216C42.1427 38.216 41.7258 38.0435 41.4167 37.7345L35.3577 31.6754C35.0504 31.3658 34.878 30.9473 34.878 30.511C34.878 30.0748 35.0504 29.6563 35.3577 29.3467L37.6289 27.0754C38.2542 26.4501 39.3395 26.4501 39.9577 27.0754L46.0167 33.1345C46.324 33.4441 46.4964 33.8627 46.4964 34.2989C46.4964 34.7351 46.324 35.1536 46.0167 35.4632L43.7455 37.7345C43.4292 38.0435 43.0195 38.216 42.5811 38.216ZM38.7933 27.9811C38.7573 27.9811 38.6783 27.9882 38.6136 28.0529L36.3423 30.3242C36.3184 30.3476 36.2994 30.3756 36.2865 30.4064C36.2735 30.4373 36.2668 30.4704 36.2668 30.5039C36.2668 30.5373 36.2735 30.5705 36.2865 30.6013C36.2994 30.6322 36.3184 30.6601 36.3423 30.6835L42.4014 36.7426C42.5308 36.872 42.6314 36.872 42.7608 36.7426L45.032 34.4714C45.0559 34.4479 45.0749 34.42 45.0879 34.3891C45.1009 34.3583 45.1075 34.3251 45.1075 34.2917C45.1075 34.2582 45.1009 34.2251 45.0879 34.1942C45.0749 34.1634 45.0559 34.1354 45.032 34.112L38.973 28.0529C38.9083 27.9882 38.8292 27.9811 38.7933 27.9811Z" fill="#FEBF00"/>
<path d="M35.936 30.4459C35.7563 30.4459 35.5766 30.3812 35.4401 30.2447L33.2048 28.0093C33.1399 27.9448 33.0884 27.8681 33.0532 27.7836C33.0181 27.6991 33 27.6085 33 27.517C33 27.4255 33.0181 27.3349 33.0532 27.2504C33.0884 27.1659 33.1399 27.0892 33.2048 27.0246C33.4779 26.7515 33.9163 26.7515 34.1894 27.0246L36.4248 29.26C36.522 29.3569 36.5882 29.4805 36.6152 29.6151C36.6422 29.7497 36.6287 29.8892 36.5764 30.0161C36.5241 30.1431 36.4354 30.2516 36.3214 30.3281C36.2074 30.4046 36.0733 30.4456 35.936 30.4459ZM38.0348 28.34C37.8551 28.34 37.6754 28.2753 37.5388 28.1387L35.3035 25.9034C35.0304 25.6303 35.0304 25.1918 35.3035 24.9187C35.5766 24.6456 36.0151 24.6456 36.2882 24.9187L38.5235 27.154C38.7966 27.4271 38.7966 27.8656 38.5235 28.1387C38.3941 28.2753 38.2144 28.34 38.0348 28.34Z" fill="#FEBF00"/>
</g>
<defs>
<clipPath id="clip0_1_6981">
<rect width="46" height="46" fill="white" transform="translate(0.5)"/>
</clipPath>
</defs>
</svg>
