<svg width="235" height="85" viewBox="0 0 235 85" fill="none" xmlns="http://www.w3.org/2000/svg">
<path d="M0 28.4822C0 12.8954 12.4849 0.259766 27.8859 0.259766H47.0143C62.4152 0.259766 74.9002 12.8954 74.9002 28.4822V55.9271C74.9002 71.5139 62.4152 84.1495 47.0143 84.1495H27.8859C12.4849 84.1495 0 71.5139 0 55.9271V28.4822Z" fill="#004C92"/>
<path fill-rule="evenodd" clip-rule="evenodd" d="M131.482 27.5087C131.47 26.3184 131.234 25.1909 130.771 24.1332C130.314 23.0776 129.69 22.1521 128.899 21.3628C128.117 20.5725 127.202 19.952 126.158 19.5009C125.102 19.0447 123.983 18.818 122.806 18.818C121.618 18.818 120.488 19.0506 119.421 19.5181C118.378 19.9691 117.458 20.589 116.667 21.3774L116.664 21.3811C115.883 22.1708 115.265 23.0962 114.808 24.151L114.806 24.1572C114.354 25.2272 114.131 26.3711 114.131 27.5817C114.131 28.7822 114.355 29.9205 114.806 30.9897L114.808 30.9958C115.265 32.0507 115.883 32.976 116.664 33.7657L116.667 33.7695C117.457 34.5569 118.375 35.1815 119.417 35.6433L119.425 35.6471C120.491 36.1025 121.62 36.3289 122.806 36.3289C123.472 36.3289 124.113 36.2766 124.73 36.1707C125.355 36.0652 125.919 35.9097 126.414 35.6971C126.918 35.4854 127.355 35.215 127.696 34.8696L127.701 34.8645L127.706 34.8593C128.08 34.4651 128.291 33.9806 128.291 33.4306C128.291 33.1386 128.235 32.855 128.125 32.5848C128.018 32.3234 127.869 32.0874 127.673 31.8864C127.507 31.7066 127.315 31.5599 127.099 31.4494C127.072 31.4357 127.045 31.4225 127.018 31.4099C126.755 31.2731 126.47 31.2079 126.176 31.2079C125.753 31.2079 125.346 31.3451 124.967 31.5646L124.959 31.5691C124.637 31.7607 124.324 31.8999 124.019 31.9917C123.729 32.068 123.331 32.1141 122.806 32.1141C122.301 32.1141 121.824 32.0292 121.373 31.8617C120.923 31.6908 120.519 31.4551 120.156 31.1541C119.793 30.8523 119.486 30.4993 119.233 30.0927C119.193 30.0265 119.188 29.9794 119.19 29.9485C119.192 29.9136 119.205 29.8682 119.241 29.817C119.318 29.7095 119.48 29.6067 119.694 29.6067H128.024H129.383C129.957 29.6067 130.479 29.4168 130.887 29.0042C131.287 28.5993 131.482 28.0861 131.482 27.5158L131.482 27.5087ZM125.675 24.0343C125.307 23.7179 124.881 23.468 124.39 23.2864L124.386 23.2849C123.915 23.1075 123.407 23.0163 122.855 23.0163C122.295 23.0163 121.786 23.112 121.32 23.297L121.308 23.3014C120.832 23.481 120.412 23.7339 120.043 24.0606L120.036 24.0673C119.664 24.3865 119.359 24.7611 119.117 25.1945C119.074 25.2709 119.068 25.3276 119.072 25.368C119.076 25.4121 119.093 25.4657 119.136 25.5234C119.226 25.6442 119.408 25.7544 119.641 25.7544H126.09C126.337 25.7544 126.531 25.6372 126.624 25.5107C126.668 25.4506 126.685 25.3965 126.688 25.3541C126.691 25.3157 126.679 25.2495 126.632 25.1716C126.381 24.7379 126.064 24.3607 125.682 24.0398L125.675 24.0343Z" fill="#004C92"/>
<path fill-rule="evenodd" clip-rule="evenodd" d="M139.134 35.7245C138.103 35.262 137.195 34.6365 136.416 33.8481L136.413 33.8443C135.643 33.0535 135.036 32.1273 134.591 31.0721C134.14 30.0029 133.916 28.8646 133.916 27.664C133.916 26.4635 134.14 25.3252 134.591 24.256C135.036 23.2008 135.643 22.2745 136.413 21.4838C137.193 20.6825 138.103 20.0549 139.137 19.6022C140.185 19.1328 141.307 18.9004 142.494 18.9004C143.68 18.9004 144.795 19.1265 145.833 19.5849C146.866 20.0367 147.771 20.6579 148.541 21.4487C149.311 22.2281 149.918 23.1432 150.364 24.1875C150.813 25.2418 151.048 26.3651 151.072 27.5511L151.072 27.5652L151.072 34.1226C151.072 34.7201 150.863 35.2536 150.453 35.6839L150.444 35.6935C150.026 36.1165 149.499 36.3289 148.908 36.3289C148.317 36.3289 147.789 36.1152 147.386 35.673L147.377 35.6633C147.226 35.492 147.106 35.3059 147.016 35.1078C146.522 35.4192 145.997 35.6797 145.44 35.8891C144.511 36.2386 143.528 36.4112 142.494 36.4112C141.308 36.4112 140.188 36.1849 139.14 35.7272L139.134 35.7245ZM145.56 30.7948C145.952 30.3879 146.256 29.9208 146.471 29.3891L146.474 29.3833C146.697 28.8471 146.81 28.2761 146.81 27.664C146.81 27.0519 146.697 26.4881 146.476 25.9654L146.473 25.9585L146.47 25.9515C146.254 25.4104 145.953 24.9475 145.566 24.5557L145.56 24.5497C145.181 24.1573 144.732 23.8467 144.205 23.6182L144.196 23.614C143.684 23.3829 143.12 23.2634 142.494 23.2634C141.881 23.2634 141.322 23.3822 140.809 23.6139L140.8 23.6183C140.273 23.8467 139.824 24.1572 139.445 24.5496C139.065 24.9442 138.759 25.4124 138.531 25.9613L138.529 25.9654C138.308 26.4881 138.195 27.0519 138.195 27.664C138.195 28.2754 138.308 28.8456 138.53 29.3812C138.758 29.9187 139.064 30.3894 139.448 30.7979C139.827 31.19 140.277 31.5059 140.804 31.7449C141.318 31.967 141.879 32.0811 142.494 32.0811C143.122 32.0811 143.688 31.9664 144.2 31.7449C144.729 31.5053 145.18 31.1882 145.56 30.7948Z" fill="#004C92"/>
<path d="M160.641 24.7534C161.078 24.3114 161.58 23.9663 162.15 23.7159L162.159 23.7119C162.717 23.4578 163.314 23.3293 163.957 23.3293H164.038C164.62 23.3293 165.144 23.1291 165.571 22.7292C166.012 22.316 166.234 21.7795 166.234 21.1725C166.234 20.5943 166.048 20.0689 165.654 19.6503C165.233 19.1913 164.653 19.0157 164.038 19.0157H163.957C162.724 19.0157 161.554 19.2598 160.453 19.7506C159.376 20.2248 158.429 20.8791 157.616 21.7124C156.804 22.5357 156.163 23.5004 155.696 24.6003C155.223 25.7133 154.988 26.8961 154.988 28.1418V34.172C154.988 34.4696 155.043 34.7593 155.161 35.032L155.168 35.0486L155.176 35.0648C155.294 35.3048 155.446 35.5215 155.632 35.7099L155.642 35.7199L155.652 35.7295C155.85 35.9139 156.072 36.0619 156.318 36.1707L156.342 36.1811L156.366 36.1897C156.625 36.2822 156.893 36.3289 157.168 36.3289C157.738 36.3289 158.247 36.1207 158.644 35.7049C159.053 35.2879 159.25 34.759 159.25 34.172V28.1418C159.25 27.4769 159.373 26.8591 159.616 26.2815C159.875 25.6892 160.218 25.182 160.641 24.7534Z" fill="#004C92"/>
<path d="M169.276 24.1947C169.699 23.1726 170.278 22.2736 171.014 21.5044C171.752 20.7339 172.62 20.1274 173.611 19.6853C174.617 19.2371 175.695 19.0157 176.839 19.0157C177.993 19.0157 179.077 19.2365 180.083 19.6848C181.084 20.1261 181.957 20.7319 182.695 21.5026C183.444 22.2724 184.024 23.1731 184.437 24.1981C184.864 25.2317 185.075 26.3288 185.075 27.4828V34.1885C185.075 34.7779 184.877 35.3086 184.464 35.7264L184.459 35.7315L184.454 35.7365C184.043 36.1356 183.529 36.3289 182.961 36.3289C182.392 36.3289 181.879 36.136 181.461 35.746L181.456 35.7411L181.451 35.7361C181.024 35.3204 180.813 34.7867 180.813 34.1885V27.5219C180.803 26.9374 180.694 26.4017 180.492 25.9085L180.49 25.9042C180.284 25.3918 180.002 24.9535 179.644 24.5823L179.638 24.5757C179.291 24.2061 178.879 23.9134 178.397 23.6973L178.386 23.6927C177.92 23.4747 177.407 23.3623 176.839 23.3623C176.268 23.3623 175.751 23.4709 175.282 23.6808L175.277 23.6834C174.809 23.8875 174.404 24.1731 174.057 24.5427C173.709 24.9139 173.43 25.3533 173.222 25.8683C173.03 26.361 172.931 26.897 172.931 27.4828V34.1885C172.931 34.7779 172.732 35.3086 172.319 35.7264C171.915 36.1352 171.401 36.3289 170.832 36.3289C170.558 36.3289 170.289 36.2822 170.03 36.1897L170.006 36.1811L169.983 36.1707C169.749 36.0671 169.533 35.9323 169.339 35.7662L169.317 35.7472L169.297 35.7264C169.11 35.538 168.959 35.3213 168.84 35.0813L168.832 35.0651L168.825 35.0485C168.707 34.7758 168.652 34.4861 168.652 34.1885V27.4828C168.652 26.3302 168.858 25.2342 169.274 24.2012L169.276 24.1947Z" fill="#004C92"/>
<path d="M191.399 13.661C191.08 13.661 190.771 13.7231 190.477 13.8482L190.464 13.8538C190.19 13.977 189.945 14.1475 189.733 14.3624C189.527 14.5708 189.366 14.8146 189.247 15.0859C189.118 15.3799 189.056 15.6926 189.056 16.0155C189.056 16.3385 189.118 16.6512 189.247 16.9452C189.364 17.212 189.52 17.4537 189.715 17.6664L189.733 17.6856L189.752 17.7034C189.962 17.9009 190.201 18.0589 190.464 18.1775L190.477 18.1829C190.771 18.308 191.08 18.3701 191.399 18.3701C191.718 18.3701 192.027 18.308 192.318 18.1773C192.581 18.0588 192.82 17.9009 193.03 17.7034L193.04 17.6945L193.049 17.6852C193.261 17.4704 193.43 17.2226 193.552 16.9452C193.681 16.6512 193.742 16.3385 193.742 16.0155C193.742 15.6926 193.681 15.3799 193.552 15.0859C193.429 14.8076 193.259 14.5611 193.04 14.3531C192.83 14.1427 192.588 13.9753 192.318 13.8538C192.027 13.7231 191.718 13.661 191.399 13.661Z" fill="#004C92"/>
<path d="M189.873 19.5258L189.884 19.5162C190.081 19.3318 190.304 19.1838 190.549 19.075L190.556 19.0719L190.563 19.069C190.835 18.9557 191.121 18.9004 191.416 18.9004C192 18.9004 192.518 19.1166 192.917 19.5509C193.314 19.971 193.514 20.4922 193.514 21.0737V34.172C193.514 34.7646 193.3 35.2908 192.886 35.7099C192.481 36.1198 191.971 36.3289 191.399 36.3289C190.823 36.3289 190.306 36.1251 189.883 35.7287L189.873 35.7195L189.863 35.7099C189.449 35.2908 189.236 34.7646 189.236 34.172V21.0737C189.236 20.7841 189.291 20.5031 189.405 20.2374C189.513 19.9744 189.664 19.7372 189.863 19.5358L189.873 19.5258Z" fill="#004C92"/>
<path d="M197.907 24.1947L197.905 24.2012C197.489 25.2342 197.284 26.3302 197.284 27.4828V34.1885C197.284 34.4861 197.338 34.7758 197.456 35.0485L197.463 35.0651L197.471 35.0813C197.59 35.3213 197.741 35.538 197.928 35.7264L197.948 35.7472L197.97 35.7662C198.164 35.9323 198.38 36.0671 198.614 36.1707L198.637 36.1811L198.661 36.1897C198.92 36.2822 199.189 36.3289 199.463 36.3289C200.032 36.3289 200.546 36.1352 200.95 35.7264C201.363 35.3086 201.562 34.7779 201.562 34.1885V27.4828C201.562 26.8967 201.661 26.3605 201.854 25.8677C202.061 25.353 202.34 24.9137 202.689 24.5427C203.036 24.1731 203.44 23.8875 203.908 23.6834L203.914 23.6808C204.383 23.4709 204.899 23.3623 205.471 23.3623C206.038 23.3623 206.551 23.4747 207.017 23.6927L207.028 23.6973C207.51 23.9134 207.922 24.2061 208.269 24.5757L208.275 24.5823C208.633 24.9535 208.915 25.3918 209.121 25.9042L209.123 25.9085C209.326 26.4017 209.434 26.9374 209.444 27.5219V34.1885C209.444 34.7867 209.655 35.3204 210.082 35.7361L210.087 35.7411L210.092 35.746C210.51 36.136 211.023 36.3289 211.592 36.3289C212.16 36.3289 212.674 36.1356 213.085 35.7365L213.09 35.7315L213.095 35.7264C213.508 35.3086 213.706 34.7779 213.706 34.1885V27.4828C213.706 26.3288 213.495 25.2317 213.068 24.1981C212.655 23.1731 212.075 22.2724 211.326 21.5026C210.588 20.7319 209.715 20.1261 208.714 19.6848C207.708 19.2365 206.624 19.0157 205.471 19.0157C204.326 19.0157 203.248 19.2371 202.242 19.6853C201.251 20.1274 200.383 20.7339 199.645 21.5044C198.909 22.2736 198.33 23.1726 197.907 24.1947Z" fill="#004C92"/>
<path fill-rule="evenodd" clip-rule="evenodd" d="M217.561 24.2407L217.563 24.2346C218.02 23.1798 218.638 22.2544 219.419 21.4647C220.208 20.6653 221.123 20.0386 222.157 19.5863C223.215 19.1177 224.341 18.8851 225.529 18.8851C226.726 18.8851 227.858 19.1171 228.916 19.5857C229.961 20.0377 230.877 20.6648 231.657 21.4666C232.438 22.2573 233.051 23.1841 233.497 24.2407C233.948 25.3099 234.172 26.4482 234.172 27.6487C234.172 28.5727 234.043 29.4485 233.78 30.2718C233.728 30.4333 233.672 30.593 233.612 30.7508C233.299 31.5723 233.371 32.596 233.692 33.5408C233.952 34.2592 234.074 35.0673 234.074 35.9526C234.074 36.9856 233.904 37.9255 233.544 38.7562C233.194 39.5734 232.716 40.2722 232.106 40.8394C231.506 41.397 230.819 41.819 230.05 42.1032C229.288 42.3846 228.496 42.525 227.678 42.525C227.231 42.525 226.771 42.4895 226.298 42.4198C225.894 42.369 225.497 42.3438 225.106 42.3438C224.819 42.3438 224.491 42.3798 224.121 42.458C223.834 42.5303 223.539 42.6704 223.235 42.8942C223.052 43.0576 222.845 43.1869 222.614 43.2718C222.394 43.356 222.166 43.3982 221.931 43.3982C221.643 43.3982 221.362 43.3409 221.095 43.2296L221.088 43.2267L221.081 43.2236C220.828 43.1114 220.602 42.9533 220.405 42.7561C220.201 42.5627 220.039 42.3338 219.919 42.0772C219.786 41.8048 219.719 41.5124 219.719 41.2084C219.719 40.7979 219.84 40.4154 220.064 40.0749L220.068 40.0682L220.073 40.0616C220.278 39.7645 220.541 39.5099 220.849 39.2936C221.148 39.0829 221.483 38.9049 221.851 38.7562L221.858 38.7533C222.221 38.611 222.591 38.4923 222.966 38.3972C223.352 38.2997 223.736 38.2377 224.116 38.2128L224.128 38.2121L224.139 38.2117C224.483 38.2005 224.821 38.1949 225.155 38.1949H225.919L225.934 38.1955C226.172 38.206 226.423 38.2113 226.685 38.2113C227.904 38.2113 228.69 37.9762 229.159 37.6198C229.59 37.2921 229.845 36.791 229.845 35.9856C229.845 35.7735 229.83 35.6106 229.808 35.4898C229.792 35.4077 229.775 35.3377 229.757 35.2784C229.242 35.5765 228.701 35.8172 228.134 36.0001C227.312 36.2655 226.442 36.3959 225.529 36.3959C224.343 36.3959 223.218 36.1696 222.162 35.7131L222.153 35.7093C221.123 35.2472 220.211 34.6227 219.422 33.8366L219.419 33.8328C218.638 33.0431 218.02 32.1177 217.563 31.0629L217.561 31.0568C217.11 29.9876 216.886 28.8493 216.886 27.6487C216.886 26.4482 217.11 25.3099 217.561 24.2407ZM229.575 25.9501L229.574 25.946C229.347 25.4006 229.038 24.9344 228.649 24.5404C228.26 24.1464 227.799 23.8343 227.26 23.6046L227.251 23.6006C226.726 23.3676 226.155 23.2481 225.529 23.2481C224.916 23.2481 224.35 23.3669 223.823 23.6005L223.818 23.6029C223.29 23.832 222.833 24.1443 222.441 24.5404C222.051 24.9359 221.736 25.4046 221.498 25.9528C221.277 26.4748 221.165 27.0377 221.165 27.6487C221.165 28.2582 221.276 28.8268 221.498 29.3609C221.735 29.8972 222.05 30.3677 222.444 30.7766C222.836 31.1718 223.293 31.4891 223.821 31.7287C224.347 31.952 224.914 32.0658 225.529 32.0658C226.157 32.0658 226.73 31.9512 227.255 31.7279C227.795 31.4877 228.256 31.1703 228.646 30.7766C229.039 30.3686 229.348 29.8997 229.575 29.3655C229.797 28.83 229.91 28.2599 229.91 27.6487C229.91 27.0366 229.797 26.4728 229.575 25.9501Z" fill="#004C92"/>
<path fill-rule="evenodd" clip-rule="evenodd" d="M116.696 65.3631C117.475 66.1515 118.383 66.7769 119.414 67.2395L119.42 67.2422C120.467 67.6998 121.588 67.9262 122.774 67.9262C123.807 67.9262 124.791 67.7536 125.72 67.4041C126.276 67.1946 126.802 66.9342 127.296 66.6227C127.386 66.8209 127.506 67.0069 127.657 67.1782L127.665 67.188C128.069 67.6301 128.597 67.8438 129.188 67.8438C129.779 67.8438 130.306 67.6315 130.724 67.2085L130.733 67.1988C131.142 66.7685 131.352 66.235 131.352 65.6375L131.352 59.0801L131.352 59.066C131.328 57.88 131.093 56.7567 130.643 55.7024C130.198 54.6582 129.591 53.7432 128.821 52.9638C128.051 52.173 127.146 51.5517 126.113 51.0999C125.075 50.6415 123.96 50.4153 122.774 50.4153C121.586 50.4153 120.465 50.6477 119.417 51.1171C118.382 51.5698 117.472 52.1974 116.692 52.9987C115.923 53.7895 115.316 54.7157 114.871 55.771C114.42 56.8401 114.196 57.9784 114.196 59.179C114.196 60.3795 114.42 61.5178 114.871 62.587C115.316 63.6422 115.923 64.5685 116.692 65.3592L116.696 65.3631ZM126.751 60.904C126.535 61.4358 126.232 61.9028 125.839 62.3097C125.46 62.7031 125.009 63.0202 124.48 63.2598C123.968 63.4814 123.402 63.5961 122.774 63.5961C122.159 63.5961 121.598 63.4819 121.084 63.2599C120.556 63.0208 120.107 62.7049 119.728 62.3129C119.343 61.9043 119.038 61.4336 118.81 60.8961C118.587 60.3605 118.475 59.7903 118.475 59.179C118.475 58.5668 118.587 58.003 118.809 57.4803L118.811 57.4762C119.039 56.9273 119.344 56.4591 119.725 56.0646C120.103 55.6722 120.553 55.3617 121.079 55.1332L121.089 55.1289C121.602 54.8971 122.161 54.7784 122.774 54.7784C123.4 54.7784 123.964 54.8978 124.475 55.1289L124.485 55.1331C125.012 55.3616 125.461 55.6722 125.839 56.0646L125.845 56.0706C126.232 56.4624 126.534 56.9253 126.75 57.4664L126.752 57.4734L126.755 57.4803C126.977 58.003 127.089 58.5668 127.089 59.179C127.089 59.7911 126.977 60.362 126.753 60.8982L126.751 60.904Z" fill="#004C92"/>
<path fill-rule="evenodd" clip-rule="evenodd" d="M138.937 45.304C139.335 45.7272 139.53 46.2538 139.53 46.8385V52.1277C139.826 51.859 140.145 51.6191 140.486 51.4084L140.493 51.4044C141 51.0986 141.543 50.8608 142.12 50.6907L142.123 50.6896C142.716 50.5182 143.318 50.4318 143.927 50.4318C145.114 50.4318 146.24 50.6642 147.297 51.1324C148.342 51.5845 149.258 52.2115 150.039 53.0133C150.82 53.804 151.433 54.7308 151.879 55.7874C152.33 56.8566 152.553 57.9949 152.553 59.1954C152.553 60.396 152.33 61.5343 151.879 62.6035L151.878 62.6061C151.431 63.6524 150.818 64.5733 150.037 65.3631C149.257 66.1528 148.343 66.7784 147.3 67.2406L147.294 67.2433C146.238 67.6998 145.113 67.9262 143.927 67.9262C142.741 67.9262 141.616 67.6998 140.559 67.2433L140.553 67.2407C139.512 66.7789 138.594 66.1543 137.804 65.3668L137.8 65.3631C137.021 64.5747 136.403 63.6559 135.946 62.6123L135.942 62.6035C135.491 61.5344 135.268 60.396 135.268 59.1954V46.8385C135.268 46.5435 135.321 46.2563 135.437 45.9857C135.543 45.7271 135.692 45.4934 135.886 45.2943C136.078 45.0856 136.306 44.9215 136.565 44.8069C136.835 44.6875 137.121 44.6323 137.415 44.6323C138.011 44.6323 138.538 44.8548 138.937 45.304ZM147.957 57.4803L147.955 57.4762C147.728 56.9308 147.42 56.4646 147.031 56.0706C146.641 55.6766 146.181 55.3645 145.642 55.1349C145.113 54.9097 144.544 54.7948 143.927 54.7948C143.31 54.7948 142.74 54.9097 142.212 55.1349C141.673 55.3645 141.212 55.6766 140.823 56.0706C140.432 56.4662 140.117 56.9348 139.879 57.4831C139.659 58.0036 139.546 58.5718 139.546 59.1954C139.546 59.8049 139.658 60.3736 139.879 60.9078C140.117 61.4437 140.431 61.9072 140.823 62.3038C141.213 62.6988 141.676 63.0173 142.217 63.258C142.744 63.4819 143.311 63.5961 143.927 63.5961C144.542 63.5961 145.11 63.4819 145.637 63.258C146.178 63.0173 146.64 62.6988 147.031 62.3038C147.422 61.9082 147.73 61.4464 147.956 60.9126C148.179 60.377 148.291 59.8068 148.291 59.1954C148.291 58.5707 148.178 58.0017 147.957 57.4803Z" fill="#004C92"/>
<path d="M156.879 59.6723C157.352 60.1635 157.904 60.5582 158.531 60.8566L158.541 60.8614C159.191 61.1581 159.893 61.3028 160.635 61.3028H163.647C163.83 61.3121 164.009 61.3448 164.184 61.4014C164.352 61.4555 164.491 61.5292 164.607 61.6188L164.614 61.6247L164.622 61.6303C164.725 61.7058 164.804 61.7987 164.862 61.9171L164.868 61.9295L164.875 61.9416C164.926 62.0358 164.967 62.1766 164.967 62.3918C164.967 62.6167 164.926 62.7835 164.865 62.9102C164.788 63.0567 164.69 63.1791 164.567 63.2821C164.438 63.3916 164.295 63.4752 164.138 63.5349C163.969 63.5878 163.806 63.6125 163.647 63.6125H157.135C156.586 63.6125 156.088 63.8026 155.697 64.1985C155.288 64.6129 155.118 65.1553 155.118 65.7364C155.118 66.3196 155.288 66.8582 155.677 67.286C156.063 67.711 156.567 67.9262 157.135 67.9262H163.891C164.643 67.9262 165.352 67.7824 166.011 67.4878C166.664 67.2009 167.234 66.8098 167.713 66.3122L167.719 66.3057C168.192 65.8016 168.559 65.2217 168.819 64.5707C169.093 63.9012 169.23 63.1949 169.23 62.4577C169.23 61.7305 169.093 61.0305 168.82 60.363C168.561 59.7034 168.195 59.1181 167.722 58.6131C167.255 58.1029 166.695 57.7035 166.051 57.4144C165.391 57.1067 164.678 56.9563 163.924 56.9563H160.652C160.518 56.9563 160.395 56.9313 160.278 56.8824C160.156 56.8271 160.044 56.7561 159.941 56.6683C159.863 56.5853 159.799 56.4869 159.749 56.3673C159.702 56.255 159.673 56.119 159.673 55.9497C159.673 55.8113 159.699 55.6957 159.744 55.5943L159.749 55.5815C159.802 55.4535 159.872 55.3498 159.957 55.2633L159.966 55.2547L159.974 55.2458C160.065 55.1475 160.162 55.0782 160.268 55.0305L160.276 55.027L160.283 55.0234C160.392 54.9714 160.511 54.9431 160.652 54.9431H166.366C166.65 54.9431 166.924 54.8832 167.182 54.7615C167.426 54.6464 167.641 54.4878 167.823 54.2873C168.01 54.0826 168.155 53.8489 168.253 53.5888C168.362 53.3169 168.416 53.031 168.416 52.7369C168.416 52.1205 168.22 51.5495 167.745 51.1428C167.329 50.7866 166.83 50.613 166.284 50.613H160.635C159.917 50.613 159.233 50.7511 158.59 51.031C157.955 51.2961 157.396 51.6708 156.918 52.1546C156.453 52.6257 156.084 53.1774 155.812 53.8032C155.533 54.446 155.395 55.1311 155.395 55.8508C155.395 56.5755 155.525 57.2697 155.788 57.9279C156.046 58.5762 156.406 59.1549 156.867 59.659L156.873 59.6658L156.879 59.6723Z" fill="#004C92"/>
<path d="M97.9629 29.1637L97.9819 23.076L97.9819 23.0677L98.0053 15.5385C98.0097 14.1321 99.1398 12.9956 100.529 13C101.919 13.0044 103.042 14.1481 103.038 15.5545L102.995 29.1797C102.991 30.3565 103.931 31.3135 105.094 31.3172L110.533 31.3409C111.922 31.3454 113.045 32.489 113.041 33.8954C113.037 35.3018 111.907 36.4383 110.517 36.4339L105.078 36.4102C101.136 36.3976 97.9505 33.1532 97.9629 29.1637Z" fill="#004C92"/>
<path d="M97.9818 54.5684L97.9629 60.6561C97.9505 64.6456 101.136 67.89 105.078 67.9026L110.517 67.9263C111.907 67.9307 113.037 66.7942 113.041 65.3878C113.045 63.9815 111.922 62.8378 110.533 62.8333L105.094 62.8097C103.931 62.806 102.991 61.8489 102.995 60.6721L103.038 47.0469C103.042 45.6406 101.919 44.4969 100.529 44.4924C99.1397 44.488 98.0097 45.6245 98.0053 47.0309L97.9819 54.5602L97.9818 54.5684Z" fill="#004C92"/>
<path fill-rule="evenodd" clip-rule="evenodd" d="M155.086 81.3631C155.332 80.8397 155.456 80.2186 155.456 79.5C155.456 78.7814 155.332 78.1603 155.086 77.6369C154.839 77.1134 154.5 76.7098 154.07 76.4258C153.64 76.1419 153.148 76 152.596 76C152.043 76 151.552 76.1419 151.121 76.4258C150.691 76.7098 150.352 77.1134 150.106 77.6369C149.859 78.1603 149.735 78.7814 149.735 79.5C149.735 80.2186 149.859 80.8397 150.106 81.3631C150.352 81.8866 150.691 82.2902 151.121 82.5742C151.552 82.8581 152.043 83 152.596 83C153.148 83 153.64 82.8581 154.07 82.5742C154.5 82.2902 154.839 81.8866 155.086 81.3631ZM154.415 78.0062C154.603 78.4121 154.696 78.91 154.696 79.5C154.696 80.09 154.603 80.5879 154.415 80.9938C154.229 81.3997 153.977 81.7069 153.659 81.9154C153.342 82.1239 152.988 82.2281 152.596 82.2281C152.203 82.2281 151.848 82.1239 151.529 81.9154C151.213 81.7069 150.961 81.3997 150.773 80.9938C150.588 80.5879 150.495 80.09 150.495 79.5C150.495 78.91 150.588 78.4121 150.773 78.0062C150.961 77.6003 151.213 77.2931 151.529 77.0846C151.848 76.8761 152.203 76.7719 152.596 76.7719C152.988 76.7719 153.342 76.8761 153.659 77.0846C153.977 77.2931 154.229 77.6003 154.415 78.0062Z" fill="#004C92"/>
<path d="M97.9629 82.9069V76.0932H98.7475V82.1749H101.76V82.9069H97.9629Z" fill="#004C92"/>
<path d="M103.776 82.9069V76.0932H107.687V76.8251H104.561V79.1274H107.484V79.8593H104.561V82.1749H107.738V82.9069H103.776Z" fill="#004C92"/>
<path fill-rule="evenodd" clip-rule="evenodd" d="M109.346 82.9069H110.169L110.82 80.9772H113.441L114.092 82.9069H114.915L112.535 76.0932H111.726L109.346 82.9069ZM113.194 80.2453L112.156 77.1711H112.105L111.067 80.2453H113.194Z" fill="#004C92"/>
<path fill-rule="evenodd" clip-rule="evenodd" d="M116.726 82.9069V76.0932H118.915C119.422 76.0932 119.837 76.1841 120.162 76.366C120.487 76.5456 120.727 76.7929 120.883 77.1079C121.039 77.4228 121.117 77.7811 121.117 78.1825C121.117 78.584 121.039 78.94 120.883 79.2505C120.727 79.561 120.488 79.805 120.165 79.9824C120.085 80.0261 119.998 80.0644 119.907 80.0972L121.371 82.9069H120.459L119.093 80.242C119.039 80.2442 118.984 80.2453 118.928 80.2453H117.511V82.9069H116.726ZM118.903 79.5H117.511V76.8251H118.89C119.24 76.8251 119.522 76.8817 119.735 76.9948C119.948 77.1057 120.103 77.2631 120.2 77.4672C120.297 77.6712 120.345 77.9097 120.345 78.1825C120.345 78.4553 120.297 78.6904 120.2 78.8878C120.105 79.083 119.951 79.2338 119.738 79.3403C119.527 79.4468 119.249 79.5 118.903 79.5Z" fill="#004C92"/>
<path d="M128.365 82.9069V76.0932H127.593V81.4563H127.53L123.986 76.0932H123.227V82.9069H124.011V77.557H124.075L127.606 82.9069H128.365Z" fill="#004C92"/>
<path d="M137.344 76.0932V82.9069H141.305V82.1749H138.128V79.8593H141.052V79.1274H138.128V76.8251H141.254V76.0932H137.344Z" fill="#004C92"/>
<path d="M143.736 76.0932L145.66 81.8289H145.736L147.659 76.0932H148.482L146.103 82.9069H145.293L142.913 76.0932H143.736Z" fill="#004C92"/>
<path d="M157.577 82.9069V76.0932H158.362V82.1749H161.374V82.9069H157.577Z" fill="#004C92"/>
<path d="M164.971 81.8289L163.047 76.0932H162.225L164.604 82.9069H165.414L167.793 76.0932H166.97L165.047 81.8289H164.971Z" fill="#004C92"/>
<path d="M169.604 82.9069V76.0932H173.515V76.8251H170.389V79.1274H173.312V79.8593H170.389V82.1749H173.565V82.9069H169.604Z" fill="#004C92"/>
<path fill-rule="evenodd" clip-rule="evenodd" d="M182.338 82.9069V76.0932H184.527C185.033 76.0932 185.449 76.1841 185.774 76.366C186.098 76.5456 186.339 76.7929 186.495 77.1079C186.651 77.4228 186.729 77.7811 186.729 78.1825C186.729 78.584 186.651 78.94 186.495 79.2505C186.339 79.561 186.1 79.805 185.777 79.9824C185.696 80.0261 185.61 80.0644 185.518 80.0972L186.982 82.9069H186.071L184.705 80.242C184.651 80.2442 184.596 80.2453 184.54 80.2453H183.122V82.9069H182.338ZM184.514 79.5H183.122V76.8251H184.502C184.852 76.8251 185.133 76.8817 185.347 76.9948C185.56 77.1057 185.715 77.2631 185.812 77.4672C185.909 77.6712 185.957 77.9097 185.957 78.1825C185.957 78.4553 185.909 78.6904 185.812 78.8878C185.717 79.083 185.563 79.2338 185.35 79.3403C185.139 79.4468 184.86 79.5 184.514 79.5Z" fill="#004C92"/>
<path d="M188.838 76.0932V82.9069H192.8V82.1749H189.623V79.8593H192.547V79.1274H189.623V76.8251H192.749V76.0932H188.838Z" fill="#004C92"/>
<path d="M195.75 76.0932V82.9069H194.965V76.0932H195.75Z" fill="#004C92"/>
<path d="M203.263 82.9069V76.0932H202.491V81.4563H202.428L198.884 76.0932H198.125V82.9069H198.91V77.557H198.973L202.504 82.9069H203.263Z" fill="#004C92"/>
<path d="M205.901 76.0932L207.825 81.8289H207.9L209.824 76.0932H210.647L208.267 82.9069H207.458L205.078 76.0932H205.901Z" fill="#004C92"/>
<path d="M212.458 76.0932V82.9069H216.419V82.1749H213.243V79.8593H216.166V79.1274H213.243V76.8251H216.369V76.0932H212.458Z" fill="#004C92"/>
<path d="M223.723 76.0932V82.9069H222.963L219.433 77.557H219.369V82.9069H218.585V76.0932H219.344L222.888 81.4563H222.951V76.0932H223.723Z" fill="#004C92"/>
<path d="M225.74 76.0932V76.8251H227.778V82.9069H228.563V76.8251H230.6V76.0932H225.74Z" fill="#004C92"/>
<path d="M131.462 82.8714C131.296 82.8714 131.154 82.8111 131.035 82.6905C130.917 82.5698 130.857 82.4252 130.857 82.2567C130.857 82.0882 130.917 81.9435 131.035 81.8228C131.154 81.702 131.296 81.6416 131.461 81.6415C131.627 81.6415 131.769 81.7017 131.888 81.8224C132.006 81.9431 132.066 82.0877 132.066 82.2562C132.066 82.3678 132.038 82.4703 131.982 82.5637C131.928 82.6571 131.856 82.7323 131.764 82.7892C131.674 82.8439 131.574 82.8713 131.462 82.8714Z" fill="#004C92"/>
<path d="M176.586 82.853C176.421 82.8531 176.279 82.7928 176.16 82.6721C176.041 82.5515 175.982 82.4069 175.982 82.2383C175.982 82.0698 176.041 81.9252 176.16 81.8044C176.278 81.6837 176.42 81.6232 176.586 81.6232C176.751 81.6231 176.894 81.6834 177.012 81.8041C177.131 81.9247 177.19 82.0693 177.19 82.2378C177.19 82.3494 177.162 82.4519 177.106 82.5453C177.053 82.6387 176.98 82.7139 176.888 82.7709C176.799 82.8256 176.698 82.853 176.586 82.853Z" fill="#004C92"/>
<path d="M233.359 82.8299C233.193 82.83 233.051 82.7697 232.933 82.649C232.814 82.5284 232.755 82.3838 232.755 82.2153C232.755 82.0467 232.814 81.9021 232.932 81.7813C233.051 81.6606 233.193 81.6002 233.359 81.6001C233.524 81.6 233.666 81.6603 233.785 81.781C233.903 81.9016 233.963 82.0462 233.963 82.2148C233.963 82.3264 233.935 82.4289 233.879 82.5223C233.825 82.6157 233.753 82.6908 233.661 82.7478C233.572 82.8025 233.471 82.8299 233.359 82.8299Z" fill="#004C92"/>
<path fill-rule="evenodd" clip-rule="evenodd" d="M136.504 5.36312C136.765 4.83967 136.895 4.21863 136.895 3.5C136.895 2.78137 136.765 2.16033 136.504 1.63688C136.242 1.11344 135.884 0.709759 135.429 0.425856C134.973 0.141952 134.453 0 133.868 0C133.283 0 132.763 0.141952 132.307 0.425856C131.852 0.709759 131.493 1.11344 131.232 1.63688C130.971 2.16033 130.84 2.78137 130.84 3.5C130.84 4.21863 130.971 4.83967 131.232 5.36312C131.493 5.88656 131.852 6.29024 132.307 6.57414C132.763 6.85805 133.283 7 133.868 7C134.453 7 134.973 6.85805 135.429 6.57414C135.884 6.29024 136.242 5.88656 136.504 5.36312ZM135.794 2.00618C135.992 2.41207 136.092 2.91001 136.092 3.5C136.092 4.08999 135.992 4.58793 135.794 4.99382C135.597 5.39971 135.33 5.70691 134.993 5.9154C134.658 6.12389 134.283 6.22814 133.868 6.22814C133.453 6.22814 133.076 6.12389 132.739 5.9154C132.404 5.70691 132.138 5.39971 131.939 4.99382C131.742 4.58793 131.644 4.08999 131.644 3.5C131.644 2.91001 131.742 2.41207 131.939 2.00618C132.138 1.60029 132.404 1.29309 132.739 1.0846C133.076 0.876109 133.453 0.771863 133.868 0.771863C134.283 0.771863 134.658 0.876109 134.993 1.0846C135.33 1.29309 135.597 1.60029 135.794 2.00618Z" fill="#004C92"/>
<path d="M96.9629 0.0931559V0.825095H99.1197V6.90684H99.9503V0.825095H102.107V0.0931559H96.9629Z" fill="#004C92"/>
<path d="M106.501 6.90684V0.0931559H107.332V3.12738H110.989V0.0931559H111.82V6.90684H110.989V3.85931H107.332V6.90684H106.501Z" fill="#004C92"/>
<path d="M116.595 6.90684V0.0931559H120.734V0.825095H117.425V3.12738H120.52V3.85931H117.425V6.1749H120.788V6.90684H116.595Z" fill="#004C92"/>
<path fill-rule="evenodd" clip-rule="evenodd" d="M143.722 0.0931559H141.404V6.90684H142.235V4.24525H143.735C143.795 4.24525 143.853 4.24415 143.91 4.24196L145.356 6.90684H146.321L144.771 4.09721C144.868 4.0644 144.96 4.02613 145.045 3.98241C145.386 3.80497 145.64 3.56099 145.805 3.25047C145.97 2.93996 146.053 2.58397 146.053 2.18251C146.053 1.78105 145.97 1.42285 145.805 1.10789C145.64 0.792934 145.385 0.545627 145.041 0.36597C144.698 0.184094 144.258 0.0931559 143.722 0.0931559ZM142.235 3.5H143.709C144.075 3.5 144.369 3.44677 144.593 3.3403C144.818 3.23384 144.981 3.08302 145.082 2.88783C145.184 2.69043 145.236 2.45532 145.236 2.18251C145.236 1.9097 145.184 1.67126 145.082 1.46721C144.979 1.26315 144.815 1.10567 144.589 0.994772C144.364 0.881654 144.066 0.825095 143.695 0.825095H142.235V3.5Z" fill="#004C92"/>
<path d="M154.947 1.62025C155.067 1.79769 155.164 1.99842 155.238 2.22243H156.095C156.033 1.89195 155.919 1.59141 155.754 1.32082C155.588 1.048 155.382 0.814005 155.134 0.618821C154.888 0.421419 154.608 0.269487 154.293 0.163023C153.981 0.0543412 153.644 0 153.282 0C152.842 0 152.439 0.0809574 152.073 0.242871C151.707 0.404785 151.39 0.637674 151.122 0.94154C150.854 1.24541 150.646 1.61359 150.499 2.0461C150.354 2.47639 150.281 2.96103 150.281 3.5C150.281 4.21863 150.409 4.83967 150.663 5.36312C150.92 5.88656 151.277 6.29024 151.735 6.57414C152.195 6.85805 152.728 7 153.336 7C153.88 7 154.363 6.88688 154.782 6.66065C155.204 6.43219 155.535 6.11058 155.774 5.69582C156.015 5.28105 156.135 4.79309 156.135 4.23194V3.5H153.523V4.23194H155.331C155.324 4.62663 155.24 4.97153 155.077 5.26663C154.91 5.57272 154.675 5.81004 154.374 5.97861C154.075 6.14496 153.729 6.22814 153.336 6.22814C152.911 6.22814 152.53 6.12389 152.19 5.9154C151.851 5.70691 151.582 5.39971 151.383 4.99382C151.184 4.58793 151.085 4.08999 151.085 3.5C151.085 2.91001 151.183 2.41207 151.38 2.00618C151.576 1.60029 151.841 1.29309 152.173 1.0846C152.506 0.876109 152.876 0.771863 153.282 0.771863C153.53 0.771863 153.758 0.805133 153.965 0.871673C154.173 0.938213 154.358 1.0347 154.521 1.16112C154.686 1.28755 154.828 1.44059 154.947 1.62025Z" fill="#004C92"/>
<path fill-rule="evenodd" clip-rule="evenodd" d="M159.869 6.90684H160.74L161.429 4.97719H164.203L164.893 6.90684H165.763L163.245 0.0931559H162.388L159.869 6.90684ZM163.942 4.24525L162.843 1.1711H162.789L161.691 4.24525H163.942Z" fill="#004C92"/>
<path d="M174.579 6.90684H175.383V0.0931559H174.566V5.45627H174.499L170.748 0.0931559H169.944V6.90684H170.775V1.55703H170.842L174.579 6.90684Z" fill="#004C92"/>
<path d="M180.157 6.90684H180.988V0.0931559H180.157V6.90684Z" fill="#004C92"/>
<path d="M185.538 6.30798V6.90684H190.267V6.1749H186.529L190.226 0.692015V0.0931559H185.497V0.825095H189.235L185.538 6.30798Z" fill="#004C92"/>
<path fill-rule="evenodd" clip-rule="evenodd" d="M194.183 6.90684H195.053L195.743 4.97719H198.517L199.206 6.90684H200.077L197.559 0.0931559H196.701L194.183 6.90684ZM198.255 4.24525L197.157 1.1711H197.103L196.005 4.24525H198.255Z" fill="#004C92"/>
<path d="M203.081 0.0931559V0.825095H205.238V6.90684H206.069V0.825095H208.226V0.0931559H203.081Z" fill="#004C92"/>
<path d="M212.62 6.90684H213.45V0.0931559H212.62V6.90684Z" fill="#004C92"/>
<path fill-rule="evenodd" clip-rule="evenodd" d="M223.623 5.36312C223.884 4.83967 224.015 4.21863 224.015 3.5C224.015 2.78137 223.884 2.16033 223.623 1.63688C223.362 1.11344 223.004 0.709759 222.548 0.425856C222.093 0.141952 221.572 0 220.987 0C220.403 0 219.882 0.141952 219.427 0.425856C218.971 0.709759 218.613 1.11344 218.352 1.63688C218.091 2.16033 217.96 2.78137 217.96 3.5C217.96 4.21863 218.091 4.83967 218.352 5.36312C218.613 5.88656 218.971 6.29024 219.427 6.57414C219.882 6.85805 220.403 7 220.987 7C221.572 7 222.093 6.85805 222.548 6.57414C223.004 6.29024 223.362 5.88656 223.623 5.36312ZM222.913 2.00618C223.112 2.41207 223.211 2.91001 223.211 3.5C223.211 4.08999 223.112 4.58793 222.913 4.99382C222.717 5.39971 222.45 5.70691 222.113 5.9154C221.778 6.12389 221.403 6.22814 220.987 6.22814C220.572 6.22814 220.196 6.12389 219.859 5.9154C219.524 5.70691 219.257 5.39971 219.058 4.99382C218.862 4.58793 218.764 4.08999 218.764 3.5C218.764 2.91001 218.862 2.41207 219.058 2.00618C219.257 1.60029 219.524 1.29309 219.859 1.0846C220.196 0.876109 220.572 0.771863 220.987 0.771863C221.403 0.771863 221.778 0.876109 222.113 1.0846C222.45 1.29309 222.717 1.60029 222.913 2.00618Z" fill="#004C92"/>
<path d="M233.159 6.90684H233.963V0.0931559H233.146V5.45627H233.079L229.328 0.0931559H228.524V6.90684H229.355V1.55703H229.421L233.159 6.90684Z" fill="#004C92"/>
<path fill-rule="evenodd" clip-rule="evenodd" d="M37.8419 11.6379L52.7866 28.1871C54.4578 30.0377 54.3508 32.9284 52.5477 34.6436C50.7446 36.3588 47.9281 36.249 46.2569 34.3984L31.3123 17.8492C29.6411 15.9986 29.748 13.1079 31.5511 11.3927C33.3543 9.6775 36.1707 9.78728 37.8419 11.6379Z" fill="#FE393C"/>
<mask id="mask0_5461_2346" style="mask-type:alpha" maskUnits="userSpaceOnUse" x="30" y="10" width="24" height="26">
<path fill-rule="evenodd" clip-rule="evenodd" d="M37.8427 11.6379L52.7873 28.1871C54.4585 30.0377 54.3516 32.9284 52.5484 34.6436C50.7453 36.3588 47.9288 36.249 46.2577 34.3984L31.313 17.8492C29.6418 15.9986 29.7488 13.1079 31.5519 11.3927C33.355 9.6775 36.1715 9.78728 37.8427 11.6379Z" fill="#FFBF23"/>
</mask>
<g mask="url(#mask0_5461_2346)">
<path fill-rule="evenodd" clip-rule="evenodd" d="M29.3229 37.8019L19.6878 46.9869C17.8869 48.7036 15.071 48.597 13.3983 46.7486C11.7256 44.9003 11.8296 42.0102 13.6304 40.2935L17.1226 36.9645L17.1546 36.9339L31.0778 23.6612C36.1866 18.7912 44.1747 19.0937 48.9198 24.3371L57.869 34.2259C59.5417 36.0743 59.4378 38.9644 57.6369 40.6811C55.836 42.3979 53.0201 42.2912 51.3474 40.4429L42.3981 30.554C40.9984 29.0073 38.6421 28.9181 37.1352 30.3546L29.3552 37.7711L29.3229 37.8019Z" fill="#B83032"/>
</g>
<path d="M42.1309 71.7111L49.9263 64.28L49.9369 64.2699L59.5783 55.0789C61.3792 53.3622 61.4831 50.4721 59.8104 48.6238C58.1377 46.7755 55.3218 46.6688 53.5209 48.3856L36.0736 65.0178C34.5666 66.4543 32.2103 66.3651 30.8106 64.8184L21.8614 54.9295C20.1887 53.0812 17.3728 52.9745 15.5719 54.6912C13.771 56.408 13.667 59.2981 15.3397 61.1464L24.289 71.0353C29.0341 76.2786 37.0222 76.5812 42.1309 71.7111Z" fill="#00B84D"/>
<path fill-rule="evenodd" clip-rule="evenodd" d="M31.1142 39.3649L21.4791 48.5499C19.6782 50.2666 16.8623 50.16 15.1896 48.3116C13.5169 46.4633 13.6208 43.5732 15.4217 41.8565L18.9138 38.5275L18.9459 38.4969L32.8691 25.2242C37.9778 20.3542 45.9659 20.6567 50.711 25.9L59.6602 35.7889C61.333 37.6373 61.229 40.5274 59.4281 42.2441C57.6272 43.9609 54.8113 43.8542 53.1386 42.0059L44.1894 32.117C42.7897 30.5703 40.4334 30.481 38.9264 31.9176L31.1464 39.3341L31.1142 39.3649Z" fill="#FFBF23"/>
</svg>
