<svg width="20" height="20" viewBox="0 0 20 20" fill="none" xmlns="http://www.w3.org/2000/svg">
<g clip-path="url(#clip0_1_1698)">
<path d="M16.9312 3.74315C15.6562 3.16815 14.2896 2.74315 12.8604 2.50148C12.8477 2.49904 12.8345 2.50061 12.8227 2.50599C12.8109 2.51136 12.8011 2.52027 12.7946 2.53148C12.6196 2.83898 12.4246 3.23982 12.2879 3.55648C10.7721 3.33001 9.23115 3.33001 7.7154 3.55648C7.56318 3.20553 7.39152 2.86334 7.20123 2.53148C7.19478 2.52013 7.18503 2.51102 7.17326 2.50537C7.1615 2.49971 7.14829 2.49777 7.1354 2.49982C5.70707 2.74148 4.3404 3.16648 3.06457 3.74232C3.05359 3.74692 3.04429 3.75477 3.0379 3.76482C0.444567 7.57731 -0.266266 11.2956 0.0829005 14.9673C0.0838721 14.9763 0.0866635 14.985 0.0911046 14.9929C0.0955458 15.0008 0.101544 15.0077 0.108734 15.0131C1.62239 16.1152 3.31068 16.9547 5.1029 17.4965C5.11539 17.5003 5.12876 17.5003 5.14124 17.4965C5.15373 17.4926 5.16476 17.485 5.1729 17.4748C5.55856 16.959 5.90031 16.4118 6.19457 15.839C6.19865 15.8311 6.201 15.8225 6.20147 15.8137C6.20193 15.8049 6.2005 15.7961 6.19726 15.7879C6.19402 15.7796 6.18905 15.7722 6.18269 15.7661C6.17633 15.7599 6.16873 15.7553 6.1604 15.7523C5.62207 15.5496 5.10047 15.3049 4.6004 15.0206C4.59141 15.0155 4.58384 15.0082 4.57836 14.9995C4.57289 14.9907 4.56967 14.9807 4.56901 14.9704C4.56835 14.96 4.57026 14.9497 4.57458 14.9403C4.57889 14.9309 4.58548 14.9227 4.59373 14.9165C4.69873 14.839 4.80373 14.7581 4.90373 14.6773C4.91273 14.67 4.92358 14.6654 4.93505 14.6639C4.94653 14.6625 4.95819 14.6642 4.96873 14.669C8.24123 16.139 11.7854 16.139 15.0196 14.669C15.0301 14.6639 15.0419 14.662 15.0536 14.6633C15.0652 14.6646 15.0762 14.6692 15.0854 14.6765C15.1854 14.7581 15.2896 14.839 15.3954 14.9165C15.4037 14.9226 15.4104 14.9307 15.4149 14.94C15.4193 14.9493 15.4214 14.9596 15.4209 14.9699C15.4204 14.9802 15.4174 14.9903 15.412 14.9991C15.4067 15.008 15.3993 15.0154 15.3904 15.0206C14.8921 15.3073 14.3737 15.5498 13.8296 15.7515C13.8212 15.7545 13.8136 15.7593 13.8072 15.7655C13.8009 15.7717 13.7959 15.7792 13.7927 15.7875C13.7894 15.7958 13.788 15.8047 13.7885 15.8135C13.789 15.8224 13.7913 15.8311 13.7954 15.839C14.0954 16.4115 14.4387 16.9565 14.8162 17.474C14.8241 17.4846 14.835 17.4925 14.8475 17.4967C14.8601 17.5009 14.8736 17.5011 14.8862 17.4973C16.6815 16.957 18.3726 16.1171 19.8879 15.0131C19.8953 15.008 19.9015 15.0013 19.9061 14.9935C19.9107 14.9858 19.9136 14.9771 19.9146 14.9681C20.3312 10.7231 19.2162 7.03481 16.9571 3.76648C16.9515 3.75586 16.9424 3.74758 16.9312 3.74315ZM6.68373 12.7315C5.69873 12.7315 4.88623 11.8406 4.88623 10.7481C4.88623 9.65481 5.6829 8.76481 6.68373 8.76481C7.69207 8.76481 8.49707 9.66231 8.48123 10.7481C8.48123 11.8415 7.68457 12.7315 6.68373 12.7315ZM13.3296 12.7315C12.3437 12.7315 11.5321 11.8406 11.5321 10.7481C11.5321 9.65481 12.3279 8.76481 13.3296 8.76481C14.3379 8.76481 15.1429 9.66231 15.1271 10.7481C15.1271 11.8415 14.3387 12.7315 13.3296 12.7315Z" fill="white"/>
</g>
<defs>
<clipPath id="clip0_1_1698">
<rect width="20" height="20" fill="white"/>
</clipPath>
</defs>
</svg>
