<svg width="20" height="20" viewBox="0 0 20 20" fill="none" xmlns="http://www.w3.org/2000/svg">
<g clip-path="url(#clip0_1_1686)">
<path fill-rule="evenodd" clip-rule="evenodd" d="M6.22344 0.888008C7.20094 0.843008 7.5126 0.833008 10.0026 0.833008C12.4926 0.833008 12.8043 0.843841 13.7809 0.888008C14.7576 0.932174 15.4243 1.08801 16.0076 1.31384C16.6184 1.54467 17.1726 1.90551 17.6309 2.37217C18.0976 2.82967 18.4576 3.38301 18.6876 3.99467C18.9143 4.57801 19.0693 5.24467 19.1143 6.21968C19.1593 7.19884 19.1693 7.51051 19.1693 9.99967C19.1693 12.4897 19.1584 12.8013 19.1143 13.7788C19.0701 14.7538 18.9143 15.4205 18.6876 16.0038C18.4576 16.6156 18.097 17.1698 17.6309 17.628C17.1726 18.0947 16.6184 18.4547 16.0076 18.6847C15.4243 18.9113 14.7576 19.0663 13.7826 19.1113C12.8043 19.1563 12.4926 19.1663 10.0026 19.1663C7.5126 19.1663 7.20094 19.1555 6.22344 19.1113C5.24844 19.0672 4.58177 18.9113 3.99844 18.6847C3.3867 18.4546 2.83245 18.0941 2.37427 17.628C1.90792 17.1702 1.54703 16.6162 1.31677 16.0047C1.09094 15.4213 0.935937 14.7547 0.890937 13.7797C0.845937 12.8005 0.835938 12.4888 0.835938 9.99967C0.835938 7.50968 0.846771 7.19801 0.890937 6.22134C0.935104 5.24467 1.09094 4.57801 1.31677 3.99467C1.54737 3.38308 1.90854 2.8291 2.3751 2.37134C2.83264 1.90509 3.38633 1.54421 3.9976 1.31384C4.58094 1.08801 5.2476 0.933008 6.2226 0.888008H6.22344ZM13.7068 2.53801C12.7401 2.49384 12.4501 2.48467 10.0026 2.48467C7.5551 2.48467 7.2651 2.49384 6.29844 2.53801C5.40427 2.57884 4.91927 2.72801 4.59594 2.85384C4.16844 3.02051 3.8626 3.21801 3.54177 3.53884C3.23764 3.83472 3.00359 4.19491 2.85677 4.59301C2.73094 4.91634 2.58177 5.40134 2.54094 6.29551C2.49677 7.26217 2.4876 7.55217 2.4876 9.99967C2.4876 12.4472 2.49677 12.7372 2.54094 13.7038C2.58177 14.598 2.73094 15.083 2.85677 15.4063C3.00344 15.8038 3.2376 16.1647 3.54177 16.4605C3.8376 16.7647 4.19844 16.9988 4.59594 17.1455C4.91927 17.2713 5.40427 17.4205 6.29844 17.4613C7.2651 17.5055 7.55427 17.5147 10.0026 17.5147C12.4509 17.5147 12.7401 17.5055 13.7068 17.4613C14.6009 17.4205 15.0859 17.2713 15.4093 17.1455C15.8368 16.9788 16.1426 16.7813 16.4634 16.4605C16.7676 16.1647 17.0018 15.8038 17.1484 15.4063C17.2743 15.083 17.4234 14.598 17.4643 13.7038C17.5084 12.7372 17.5176 12.4472 17.5176 9.99967C17.5176 7.55217 17.5084 7.26217 17.4643 6.29551C17.4234 5.40134 17.2743 4.91634 17.1484 4.59301C16.9818 4.16551 16.7843 3.85967 16.4634 3.53884C16.1675 3.23473 15.8074 3.00068 15.4093 2.85384C15.0859 2.72801 14.6009 2.57884 13.7068 2.53801ZM8.83177 12.8255C9.48565 13.0977 10.2138 13.1344 10.8917 12.9294C11.5697 12.7244 12.1554 12.2904 12.5489 11.7015C12.9425 11.1126 13.1193 10.4054 13.0493 9.7006C12.9793 8.99579 12.6668 8.33715 12.1651 7.83717C11.8453 7.51757 11.4586 7.27285 11.0329 7.12063C10.6071 6.96841 10.153 6.91248 9.70302 6.95685C9.25307 7.00123 8.81856 7.14482 8.43077 7.37728C8.04298 7.60974 7.71156 7.92529 7.46036 8.30122C7.20916 8.67714 7.04443 9.10408 6.97803 9.55131C6.91164 9.99854 6.94523 10.4549 7.07639 10.8876C7.20754 11.3203 7.43301 11.7185 7.73654 12.0536C8.04007 12.3887 8.41412 12.6523 8.83177 12.8255ZM6.67094 6.66801C7.10846 6.23049 7.62787 5.88343 8.19952 5.64664C8.77117 5.40986 9.38386 5.28799 10.0026 5.28799C10.6214 5.28799 11.234 5.40986 11.8057 5.64664C12.3773 5.88343 12.8968 6.23049 13.3343 6.66801C13.7718 7.10553 14.1189 7.62494 14.3556 8.19659C14.5924 8.76824 14.7143 9.38093 14.7143 9.99967C14.7143 10.6184 14.5924 11.2311 14.3556 11.8028C14.1189 12.3744 13.7718 12.8938 13.3343 13.3313C12.4507 14.215 11.2522 14.7114 10.0026 14.7114C8.75299 14.7114 7.55455 14.215 6.67094 13.3313C5.78732 12.4477 5.29092 11.2493 5.29092 9.99967C5.29092 8.75006 5.78732 7.55162 6.67094 6.66801ZM15.7593 5.98968C15.8677 5.8874 15.9545 5.76441 16.0145 5.62799C16.0746 5.49156 16.1066 5.34448 16.1088 5.19545C16.111 5.04642 16.0832 4.89846 16.0272 4.76035C15.9711 4.62224 15.888 4.49677 15.7826 4.39137C15.6772 4.28598 15.5517 4.20281 15.4136 4.14677C15.2755 4.09074 15.1275 4.06299 14.9785 4.06516C14.8295 4.06733 14.6824 4.09939 14.546 4.15942C14.4095 4.21946 14.2865 4.30625 14.1843 4.41467C13.9854 4.62553 13.8765 4.90561 13.8807 5.19545C13.8849 5.48529 14.0019 5.76207 14.2069 5.96704C14.4119 6.17201 14.6887 6.28903 14.9785 6.29326C15.2683 6.29748 15.5484 6.18858 15.7593 5.98968Z" fill="white"/>
</g>
<defs>
<clipPath id="clip0_1_1686">
<rect width="20" height="20" fill="white"/>
</clipPath>
</defs>
</svg>
