<svg width="167" height="32" viewBox="0 0 167 32" fill="none" xmlns="http://www.w3.org/2000/svg">
<mask id="mask0_1_1142" style="mask-type:alpha" maskUnits="userSpaceOnUse" x="0" y="0" width="167" height="32">
<path fill-rule="evenodd" clip-rule="evenodd" d="M13.8211 29.2064L20.3601 17.8716H15.9476L18.1539 14.0756H28.5207L26.3144 17.8981H22.5664L15.9476 29.3922C23.3107 29.3922 29.3713 23.3664 29.3713 15.9868C29.3713 8.66036 23.3373 2.63458 15.9476 2.63458C15.416 2.63458 14.8578 2.66112 14.3793 2.74076L7.78713 14.1287H15.9476L13.7148 17.8716H3.34803L11.8009 3.27166C6.43147 4.9971 2.55058 10.0673 2.55058 15.9603C2.55058 22.6232 7.44157 28.1711 13.8211 29.2064ZM15.9476 0.696777C24.3739 0.696777 31.2585 7.572 31.2585 15.9868C31.2585 24.4282 24.3474 31.3035 15.9476 31.3035C7.49473 31.3035 0.636719 24.4282 0.636719 15.9868C0.636719 7.54545 7.49473 0.696777 15.9476 0.696777Z" fill="#0B1412"/>
<path d="M157.892 15.9606C158.291 14.1555 159.567 12.3239 161.667 12.3239C163.793 12.3239 164.245 14.1555 163.873 15.9606C163.474 17.7922 162.252 19.6503 160.099 19.6503C157.892 19.6503 157.494 17.7922 157.892 15.9606ZM155.686 15.9606C154.995 19.0663 156.324 21.2696 159.727 21.2696C163.076 21.2696 165.415 19.0398 166.079 15.9606C166.744 12.8813 165.335 10.7046 162.013 10.7046C158.637 10.7046 156.351 12.8282 155.686 15.9606ZM146.516 21.0838H148.642L149.572 16.8631H150.264C151.167 16.8631 151.38 17.1551 151.513 17.9249L152.098 21.1103H154.463L153.613 17.1285C153.506 16.6773 153.294 16.1198 152.709 16.0933V16.0667C154.091 15.8809 155.154 14.8987 155.42 13.7042C156.032 10.8639 153.294 10.9435 151.008 10.9435H148.695L146.516 21.0838ZM150.503 12.4831H151.194C152.257 12.4831 153.427 12.5893 153.161 13.8104C152.868 15.0846 151.646 15.2173 150.609 15.2173H149.918L150.503 12.4831ZM137.69 21.0838H141.412C142.741 21.0838 145.24 20.7121 145.798 18.1373C146.064 16.8896 145.266 15.934 143.857 15.8278V15.8013C145.16 15.5889 146.197 14.7395 146.462 13.5184C146.941 11.2886 144.974 10.917 143.618 10.917H139.897L137.69 21.0838ZM141.704 12.4831H142.528C143.512 12.4831 144.549 12.5628 144.309 13.7573C144.07 14.7926 142.927 15.0049 142.023 15.0049H141.146L141.704 12.4831ZM140.827 16.518H141.837C142.9 16.518 143.99 16.7304 143.698 18.0576C143.432 19.2256 142.183 19.4645 141.199 19.4645H140.189L140.827 16.518ZM128.201 17.394C127.616 20.1282 128.972 21.2431 131.71 21.2431C134.421 21.2431 136.282 20.1282 136.893 17.394L138.302 10.8639H136.175L134.899 16.7569C134.527 18.4824 133.703 19.6503 132.055 19.6503C130.407 19.6503 130.088 18.5089 130.487 16.7569L131.763 10.8639H129.636L128.201 17.394ZM119.216 15.9606C119.615 14.1555 120.864 12.3239 122.964 12.3239C125.091 12.3239 125.569 14.1555 125.171 15.9606C124.772 17.7922 123.576 19.6503 121.396 19.6503C119.216 19.6503 118.791 17.7922 119.216 15.9606ZM116.984 15.9606C116.292 19.0663 117.622 21.2696 121.024 21.2696C124.373 21.2696 126.712 19.0398 127.377 15.9606C128.041 12.8813 126.633 10.7046 123.31 10.7046C119.961 10.7046 117.675 12.8282 116.984 15.9606ZM111.375 21.0838H113.501L115.362 12.5097H118.419L118.765 10.8904H110.551L110.205 12.5097H113.262L111.375 21.0838ZM101.141 15.7216C102.443 15.0846 103.48 14.4209 103.773 13.014C104.145 11.3682 102.709 10.7046 101.221 10.7046C99.7322 10.7046 97.8183 11.4744 97.4728 13.014C97.2335 14.182 97.7652 14.7129 98.4297 15.4562C96.5956 16.1464 95.8513 17.0224 95.5855 18.27C95.1868 20.1812 96.6222 21.2431 98.7221 21.2431C99.7854 21.2431 100.955 20.898 101.859 20.1547L102.39 21.0572H104.995L103.533 19.0133C104.597 18.0311 105.314 16.81 105.633 15.5358H103.773C103.56 16.3322 103.241 17.1816 102.603 17.7391L101.141 15.7216ZM100.184 14.6864C99.8651 14.2882 99.3866 13.8104 99.493 13.2529C99.6525 12.5097 100.344 12.1646 100.955 12.1646C101.566 12.1646 102.045 12.5097 101.885 13.1998C101.752 13.7838 100.769 14.3944 100.184 14.6864ZM101.088 19.1194C100.53 19.5707 99.8119 19.73 99.0942 19.73C98.1107 19.73 97.4196 19.1194 97.6323 18.2169C97.8183 17.4205 98.5094 16.9427 99.2803 16.5711L101.088 19.1194ZM80.3012 21.0838H82.3213L83.996 13.4653H84.0226L86.4415 21.0838H89.0464L91.2527 10.8904H89.2059L87.5579 18.5089H87.5313L85.139 10.8904H82.534L80.3012 21.0838ZM72.4065 21.0838H78.7063L79.0518 19.4911H74.8785L75.5165 16.6242H79.2911L79.6366 15.0049H75.8355L76.3937 12.4831H80.5404L80.886 10.8639H74.6127L72.4065 21.0838ZM72.7786 11.0762C72.0609 10.8373 71.2103 10.7046 70.3065 10.7046C68.4458 10.7046 66.3991 11.5275 65.9206 13.8104C65.1763 17.1816 70.0141 16.3853 69.5888 18.3231C69.3762 19.2522 68.2066 19.6503 67.4092 19.6503C66.5585 19.6503 65.7877 19.4114 65.1497 19.0133L64.5649 20.8449C65.5485 21.0838 66.0535 21.2431 67.1965 21.2431C69.323 21.2431 71.3698 20.3936 71.8483 18.1638C72.5925 14.766 67.7547 15.5093 68.1534 13.7308C68.3927 12.6159 69.4028 12.3239 70.1205 12.3239C70.8647 12.3239 71.5824 12.4831 72.1938 12.7486L72.7786 11.0762ZM56.1386 21.0838H58.2651L59.1955 16.8631H59.8866C60.7904 16.8631 61.003 17.1551 61.1359 17.9249L61.7207 21.1103H64.0865L63.2624 17.1285C63.1561 16.6773 62.9169 16.1198 62.3587 16.0933V16.0667C63.7409 15.8809 64.8042 14.8987 65.07 13.7042C65.6814 10.8639 62.9435 10.9435 60.6575 10.9435H58.3449L56.1386 21.0838ZM60.1258 12.4831H60.817C61.8802 12.4831 63.0498 12.5893 62.784 13.8104C62.4916 15.0846 61.2688 15.2173 60.2322 15.2173H59.541L60.1258 12.4831ZM45.2934 21.0838H47.4997L48.9351 18.7478H53.2412L53.64 21.0838H56.0057L54.0387 10.8904H51.6464L45.2934 21.0838ZM53.002 17.1285H49.892L52.3375 12.9344H52.3641L53.002 17.1285ZM38.9404 21.0838H45.1871L45.5326 19.4911H41.4125L43.2732 10.8904H41.1467L38.9404 21.0838Z" fill="#0B1412"/>
<path fill-rule="evenodd" clip-rule="evenodd" d="M13.6639 29.2064L20.2029 17.8981H15.7904L17.9967 14.1021H28.3634L26.1572 17.9246H22.4092L15.7904 29.4187C23.1535 29.4187 29.214 23.393 29.214 16.0134C29.214 8.68689 23.18 2.66112 15.7904 2.66112C15.2588 2.66112 14.7006 2.68767 14.2221 2.7673L7.6299 14.1552H15.7904L13.5841 17.9512H3.21738L11.6703 3.3513C6.30083 5.07674 2.39336 10.1469 2.39336 16.0665C2.39336 22.6232 7.28434 28.1711 13.6639 29.2064ZM15.7904 0.696777C24.2167 0.696777 31.1013 7.572 31.1013 15.9868C31.1013 24.4282 24.1901 31.3035 15.7904 31.3035C7.33751 31.3035 0.479492 24.4282 0.479492 15.9868C0.479492 7.54545 7.36409 0.696777 15.7904 0.696777Z" fill="#0B1412"/>
<path d="M157.732 15.9606C158.131 14.1555 159.407 12.3239 161.507 12.3239C163.633 12.3239 164.085 14.1555 163.713 15.9606C163.314 17.7922 162.092 19.6503 159.938 19.6503C157.759 19.6503 157.334 17.7922 157.732 15.9606ZM155.526 15.9606C154.835 19.0663 156.164 21.2696 159.566 21.2696C162.916 21.2696 165.255 19.0398 165.919 15.9606C166.584 12.8813 165.175 10.7046 161.852 10.7046C158.477 10.7046 156.191 12.8282 155.526 15.9606ZM146.355 21.0838H148.482L149.412 16.8631H150.103C151.007 16.8631 151.22 17.1551 151.353 17.9249L151.937 21.1103H154.303L153.453 17.1285C153.346 16.6773 153.134 16.1198 152.549 16.0933V16.0667C153.931 15.8809 154.994 14.8987 155.26 13.7042C155.872 10.8639 153.134 10.9435 150.848 10.9435H148.535L146.355 21.0838ZM150.343 12.4831H151.034C152.097 12.4831 153.267 12.5893 153.001 13.8104C152.708 15.0846 151.486 15.2173 150.449 15.2173H149.758L150.343 12.4831ZM137.53 21.0838H141.252C142.581 21.0838 145.079 20.7121 145.638 18.1373C145.903 16.8896 145.106 15.934 143.697 15.8278V15.8013C145 15.5889 146.036 14.7395 146.302 13.5184C146.781 11.2886 144.814 10.917 143.458 10.917H139.737L137.53 21.0838ZM141.544 12.4831H142.368C143.352 12.4831 144.388 12.5628 144.149 13.7573C143.91 14.7926 142.767 15.0049 141.863 15.0049H140.986L141.544 12.4831ZM140.667 16.518H141.677C142.74 16.518 143.83 16.7304 143.538 18.0576C143.272 19.2256 142.023 19.4645 141.039 19.4645H140.029L140.667 16.518ZM128.041 17.394C127.456 20.1282 128.812 21.2431 131.55 21.2431C134.287 21.2431 136.122 20.1282 136.733 17.394L138.142 10.8639H136.015L134.739 16.7569C134.367 18.4824 133.543 19.6503 131.895 19.6503C130.274 19.6503 129.928 18.5089 130.327 16.7569L131.603 10.8639H129.476L128.041 17.394ZM119.056 15.9606C119.455 14.1555 120.704 12.3239 122.804 12.3239C124.931 12.3239 125.409 14.1555 125.01 15.9606C124.612 17.7922 123.416 19.6503 121.236 19.6503C119.056 19.6503 118.658 17.7922 119.056 15.9606ZM116.823 15.9606C116.132 19.0663 117.461 21.2696 120.864 21.2696C124.213 21.2696 126.552 19.0398 127.217 15.9606C127.881 12.8813 126.472 10.7046 123.15 10.7046C119.801 10.7046 117.514 12.8282 116.823 15.9606ZM111.215 21.0838H113.341L115.202 12.5097H118.259L118.604 10.8904H110.391L110.045 12.5097H113.102L111.215 21.0838ZM100.981 15.7216C102.283 15.0846 103.32 14.4209 103.612 13.014C103.985 11.3682 102.549 10.7046 101.061 10.7046C99.572 10.7046 97.6582 11.4744 97.3126 13.014C97.0734 14.182 97.605 14.7129 98.2695 15.4562C96.4354 16.1464 95.6911 17.0224 95.4253 18.27C95.0266 20.1812 96.462 21.2431 98.5619 21.2431C99.6252 21.2431 100.795 20.898 101.699 20.1547L102.23 21.0572H104.835L103.373 19.0133C104.436 18.0311 105.154 16.81 105.473 15.5358H103.612C103.4 16.3322 103.081 17.1816 102.443 17.7391L100.981 15.7216ZM100.024 14.6864C99.7049 14.2882 99.2265 13.8104 99.3328 13.2529C99.4923 12.5097 100.183 12.1646 100.795 12.1646C101.406 12.1646 101.885 12.5097 101.725 13.1998C101.592 13.7838 100.609 14.3944 100.024 14.6864ZM100.928 19.1194C100.369 19.5707 99.6518 19.73 98.9341 19.73C97.9506 19.73 97.2594 19.1194 97.4721 18.2169C97.6582 17.4205 98.3493 16.9427 99.1201 16.5711L100.928 19.1194ZM80.1676 21.0838H82.1878L83.8624 13.4653H83.889L86.3079 21.0838H88.9129L91.1191 10.8904H89.0724L87.4243 18.5089H87.3977L85.0054 10.8904H82.4004L80.1676 21.0838ZM72.2463 21.0838H78.5461L78.8917 19.4911H74.7184L75.3563 16.6242H79.1309L79.4765 15.0049H75.6753L76.2335 12.4831H80.3802L80.7258 10.8639H74.4526L72.2463 21.0838ZM72.645 11.0762C71.9273 10.8373 71.0767 10.7046 70.173 10.7046C68.3123 10.7046 66.2655 11.5275 65.787 13.8104C65.0427 17.1816 69.8806 16.3853 69.4553 18.3231C69.2426 19.2522 68.073 19.6503 67.2756 19.6503C66.425 19.6503 65.6541 19.4114 65.0162 19.0133L64.4314 20.8449C65.4149 21.0838 65.9199 21.2431 67.0629 21.2431C69.1894 21.2431 71.2362 20.3936 71.7147 18.1638C72.459 14.766 67.6211 15.5093 68.0199 13.7308C68.2591 12.6159 69.2692 12.3239 69.9869 12.3239C70.7312 12.3239 71.4489 12.4831 72.0602 12.7486L72.645 11.0762ZM55.9785 21.0838H58.105L59.0353 16.8631H59.7264C60.6302 16.8631 60.8429 17.1551 60.9758 17.9249L61.5606 21.1103H63.9263L63.1023 17.1285C62.996 16.6773 62.7567 16.1198 62.1985 16.0933V16.0667C63.5808 15.8809 64.644 14.8987 64.9098 13.7042C65.5212 10.8639 62.7833 10.9435 60.4973 10.9435H58.1847L55.9785 21.0838ZM59.9923 12.4831H60.6834C61.7466 12.4831 62.9162 12.5893 62.6504 13.8104C62.358 15.0846 61.1353 15.2173 60.0986 15.2173H59.4075L59.9923 12.4831ZM45.1598 21.0838H47.3661L48.8015 18.7478H53.1077L53.5064 21.0838H55.8721L53.9051 10.8904H51.5128L45.1598 21.0838ZM52.8684 17.1285H49.7584L52.2039 12.9344H52.2305L52.8684 17.1285ZM38.7803 21.0838H45.0269L45.3725 19.4911H41.2523L43.113 10.8904H40.9865L38.7803 21.0838Z" fill="#0B1412"/>
</mask>
<g mask="url(#mask0_1_1142)">
<rect x="-0.604492" y="-12.0759" width="169.404" height="53.1081" fill="#E0E0E0"/>
</g>
</svg>
