<svg width="33" height="33" viewBox="0 0 33 33" fill="none" xmlns="http://www.w3.org/2000/svg">
<path d="M29.9237 0.75H3.07762C1.79207 0.75 0.750122 1.7601 0.750122 3.0068V29.9921C0.750122 31.2388 1.79242 32.25 3.07762 32.25H29.9237C31.2092 32.25 32.2498 31.2385 32.2498 29.9921V3.0068C32.2498 1.76045 31.2092 0.75 29.9237 0.75ZM10.2999 27.1176H5.54057V12.8957H10.2999V27.1176ZM7.92057 10.9528H7.88872C6.29272 10.9528 5.25812 9.8612 5.25812 8.4948C5.25812 7.10075 6.32317 6.03885 7.95067 6.03885C9.57852 6.03885 10.5799 7.1004 10.6114 8.4948C10.6114 9.86155 9.57887 10.9528 7.92057 10.9528ZM27.4562 27.1176H22.6983V19.5086C22.6983 17.5962 22.0088 16.2917 20.2882 16.2917C18.9718 16.2917 18.1906 17.172 17.8476 18.0215C17.7202 18.3253 17.6891 18.7494 17.6891 19.1736V27.1172H12.9319C12.9319 27.1172 12.9942 14.2292 12.9319 12.8953H17.6894V14.9117C18.3212 13.9429 19.4496 12.5608 21.9766 12.5608C25.108 12.5608 27.4562 14.5922 27.4562 18.9626V27.1176ZM17.6586 14.9569C17.667 14.9436 17.6782 14.9271 17.6894 14.9117V14.9569H17.6586Z" fill="white"/>
</svg>
