<svg width="167" height="32" viewBox="0 0 167 32" fill="none" xmlns="http://www.w3.org/2000/svg">
<mask id="mask0_1_2221" style="mask-type:alpha" maskUnits="userSpaceOnUse" x="0" y="0" width="167" height="32">
<path fill-rule="evenodd" clip-rule="evenodd" d="M13.8204 29.2063L20.3594 17.8714H15.9469L18.1532 14.0755H28.5199L26.3137 17.898H22.5657L15.9469 29.3921C23.31 29.3921 29.3705 23.3663 29.3705 15.9867C29.3705 8.66023 23.3365 2.63446 15.9469 2.63446C15.4153 2.63446 14.8571 2.661 14.3786 2.74063L7.78639 14.1286H15.9469L13.7141 17.8714H3.34729L11.8002 3.27154C6.43074 4.99698 2.54985 10.0671 2.54985 15.9602C2.54985 22.623 7.44084 28.171 13.8204 29.2063ZM15.9469 0.696655C24.3732 0.696655 31.2578 7.57188 31.2578 15.9867C31.2578 24.4281 24.3466 31.3033 15.9469 31.3033C7.494 31.3033 0.635986 24.4281 0.635986 15.9867C0.635986 7.54533 7.494 0.696655 15.9469 0.696655Z" fill="#0B1412"/>
<path d="M157.892 15.9606C158.291 14.1555 159.567 12.3239 161.666 12.3239C163.793 12.3239 164.245 14.1555 163.873 15.9606C163.474 17.7922 162.251 19.6503 160.098 19.6503C157.892 19.6503 157.493 17.7922 157.892 15.9606ZM155.686 15.9606C154.995 19.0663 156.324 21.2696 159.726 21.2696C163.075 21.2696 165.414 19.0398 166.079 15.9606C166.744 12.8813 165.335 10.7046 162.012 10.7046C158.636 10.7046 156.35 12.8282 155.686 15.9606ZM146.515 21.0838H148.642L149.572 16.8631H150.263C151.167 16.8631 151.379 17.1551 151.512 17.9249L152.097 21.1103H154.463L153.612 17.1285C153.506 16.6773 153.293 16.1198 152.709 16.0933V16.0667C154.091 15.8809 155.154 14.8987 155.42 13.7042C156.031 10.8639 153.293 10.9435 151.007 10.9435H148.695L146.515 21.0838ZM150.502 12.4831H151.193C152.257 12.4831 153.426 12.5893 153.16 13.8104C152.868 15.0846 151.645 15.2173 150.609 15.2173H149.917L150.502 12.4831ZM137.69 21.0838H141.411C142.74 21.0838 145.239 20.7121 145.797 18.1373C146.063 16.8896 145.266 15.934 143.857 15.8278V15.8013C145.159 15.5889 146.196 14.7395 146.462 13.5184C146.94 11.2886 144.973 10.917 143.618 10.917H139.896L137.69 21.0838ZM141.704 12.4831H142.528C143.511 12.4831 144.548 12.5628 144.309 13.7573C144.07 14.7926 142.927 15.0049 142.023 15.0049H141.146L141.704 12.4831ZM140.827 16.518H141.837C142.9 16.518 143.99 16.7304 143.697 18.0576C143.432 19.2256 142.182 19.4645 141.199 19.4645H140.189L140.827 16.518ZM128.2 17.394C127.616 20.1282 128.971 21.2431 131.709 21.2431C134.42 21.2431 136.281 20.1282 136.893 17.394L138.301 10.8639H136.175L134.899 16.7569C134.527 18.4824 133.703 19.6503 132.055 19.6503C130.407 19.6503 130.088 18.5089 130.486 16.7569L131.762 10.8639H129.636L128.2 17.394ZM119.216 15.9606C119.615 14.1555 120.864 12.3239 122.964 12.3239C125.09 12.3239 125.569 14.1555 125.17 15.9606C124.771 17.7922 123.575 19.6503 121.396 19.6503C119.216 19.6503 118.791 17.7922 119.216 15.9606ZM116.983 15.9606C116.292 19.0663 117.621 21.2696 121.023 21.2696C124.373 21.2696 126.712 19.0398 127.376 15.9606C128.041 12.8813 126.632 10.7046 123.309 10.7046C119.96 10.7046 117.674 12.8282 116.983 15.9606ZM111.374 21.0838H113.501L115.362 12.5097H118.418L118.764 10.8904H110.55L110.205 12.5097H113.262L111.374 21.0838ZM101.141 15.7216C102.443 15.0846 103.48 14.4209 103.772 13.014C104.144 11.3682 102.709 10.7046 101.22 10.7046C99.7317 10.7046 97.8178 11.4744 97.4723 13.014C97.233 14.182 97.7647 14.7129 98.4292 15.4562C96.5951 16.1464 95.8508 17.0224 95.585 18.27C95.1863 20.1812 96.6217 21.2431 98.7216 21.2431C99.7849 21.2431 100.954 20.898 101.858 20.1547L102.39 21.0572H104.995L103.533 19.0133C104.596 18.0311 105.314 16.81 105.633 15.5358H103.772C103.559 16.3322 103.24 17.1816 102.602 17.7391L101.141 15.7216ZM100.184 14.6864C99.8646 14.2882 99.3861 13.8104 99.4925 13.2529C99.652 12.5097 100.343 12.1646 100.954 12.1646C101.566 12.1646 102.044 12.5097 101.885 13.1998C101.752 13.7838 100.768 14.3944 100.184 14.6864ZM101.087 19.1194C100.529 19.5707 99.8115 19.73 99.0938 19.73C98.1102 19.73 97.4191 19.1194 97.6318 18.2169C97.8178 17.4205 98.509 16.9427 99.2798 16.5711L101.087 19.1194ZM80.3007 21.0838H82.3209L83.9955 13.4653H84.0221L86.441 21.0838H89.046L91.2522 10.8904H89.2055L87.5574 18.5089H87.5308L85.1385 10.8904H82.5335L80.3007 21.0838ZM72.406 21.0838H78.7058L79.0513 19.4911H74.8781L75.516 16.6242H79.2906L79.6361 15.0049H75.835L76.3932 12.4831H80.5399L80.8855 10.8639H74.6122L72.406 21.0838ZM72.7781 11.0762C72.0604 10.8373 71.2098 10.7046 70.306 10.7046C68.4453 10.7046 66.3986 11.5275 65.9201 13.8104C65.1758 17.1816 70.0137 16.3853 69.5883 18.3231C69.3757 19.2522 68.2061 19.6503 67.4087 19.6503C66.5581 19.6503 65.7872 19.4114 65.1492 19.0133L64.5644 20.8449C65.548 21.0838 66.053 21.2431 67.196 21.2431C69.3225 21.2431 71.3693 20.3936 71.8478 18.1638C72.5921 14.766 67.7542 15.5093 68.1529 13.7308C68.3922 12.6159 69.4023 12.3239 70.12 12.3239C70.8643 12.3239 71.582 12.4831 72.1933 12.7486L72.7781 11.0762ZM56.1381 21.0838H58.2647L59.195 16.8631H59.8861C60.7899 16.8631 61.0025 17.1551 61.1354 17.9249L61.7202 21.1103H64.086L63.262 17.1285C63.1556 16.6773 62.9164 16.1198 62.3582 16.0933V16.0667C63.7404 15.8809 64.8037 14.8987 65.0695 13.7042C65.6809 10.8639 62.943 10.9435 60.657 10.9435H58.3444L56.1381 21.0838ZM60.1254 12.4831H60.8165C61.8797 12.4831 63.0493 12.5893 62.7835 13.8104C62.4911 15.0846 61.2684 15.2173 60.2317 15.2173H59.5406L60.1254 12.4831ZM45.2929 21.0838H47.4992L48.9346 18.7478H53.2408L53.6395 21.0838H56.0052L54.0382 10.8904H51.6459L45.2929 21.0838ZM53.0015 17.1285H49.8915L52.337 12.9344H52.3636L53.0015 17.1285ZM38.9399 21.0838H45.1866L45.5321 19.4911H41.412L43.2727 10.8904H41.1462L38.9399 21.0838Z" fill="#0B1412"/>
<path fill-rule="evenodd" clip-rule="evenodd" d="M13.6636 29.2063L20.2027 17.898H15.7902L17.9964 14.102H28.3632L26.1569 17.9245H22.4089L15.7902 29.4186C23.1532 29.4186 29.2138 23.3928 29.2138 16.0133C29.2138 8.68677 23.1798 2.661 15.7902 2.661C15.2585 2.661 14.7003 2.68755 14.2219 2.76718L7.62966 14.1551H15.7902L13.5839 17.9511H3.21714L11.67 3.35118C6.30058 5.07662 2.39311 10.1468 2.39311 16.0664C2.39311 22.623 7.2841 28.171 13.6636 29.2063ZM15.7902 0.696655C24.2165 0.696655 31.1011 7.57188 31.1011 15.9867C31.1011 24.4281 24.1899 31.3033 15.7902 31.3033C7.33726 31.3033 0.479248 24.4281 0.479248 15.9867C0.479248 7.54533 7.36384 0.696655 15.7902 0.696655Z" fill="#0B1412"/>
<path d="M157.732 15.9606C158.131 14.1555 159.407 12.3239 161.507 12.3239C163.633 12.3239 164.085 14.1555 163.713 15.9606C163.314 17.7922 162.091 19.6503 159.938 19.6503C157.759 19.6503 157.333 17.7922 157.732 15.9606ZM155.526 15.9606C154.835 19.0663 156.164 21.2696 159.566 21.2696C162.915 21.2696 165.255 19.0398 165.919 15.9606C166.584 12.8813 165.175 10.7046 161.852 10.7046C158.476 10.7046 156.19 12.8282 155.526 15.9606ZM146.355 21.0838H148.482L149.412 16.8631H150.103C151.007 16.8631 151.22 17.1551 151.352 17.9249L151.937 21.1103H154.303L153.452 17.1285C153.346 16.6773 153.133 16.1198 152.549 16.0933V16.0667C153.931 15.8809 154.994 14.8987 155.26 13.7042C155.871 10.8639 153.133 10.9435 150.847 10.9435H148.535L146.355 21.0838ZM150.342 12.4831H151.033C152.097 12.4831 153.266 12.5893 153 13.8104C152.708 15.0846 151.485 15.2173 150.449 15.2173H149.758L150.342 12.4831ZM137.53 21.0838H141.251C142.581 21.0838 145.079 20.7121 145.637 18.1373C145.903 16.8896 145.106 15.934 143.697 15.8278V15.8013C144.999 15.5889 146.036 14.7395 146.302 13.5184C146.78 11.2886 144.813 10.917 143.458 10.917H139.736L137.53 21.0838ZM141.544 12.4831H142.368C143.351 12.4831 144.388 12.5628 144.149 13.7573C143.91 14.7926 142.767 15.0049 141.863 15.0049H140.986L141.544 12.4831ZM140.667 16.518H141.677C142.74 16.518 143.83 16.7304 143.538 18.0576C143.272 19.2256 142.022 19.4645 141.039 19.4645H140.029L140.667 16.518ZM128.041 17.394C127.456 20.1282 128.811 21.2431 131.549 21.2431C134.287 21.2431 136.121 20.1282 136.733 17.394L138.141 10.8639H136.015L134.739 16.7569C134.367 18.4824 133.543 19.6503 131.895 19.6503C130.273 19.6503 129.928 18.5089 130.327 16.7569L131.602 10.8639H129.476L128.041 17.394ZM119.056 15.9606C119.455 14.1555 120.704 12.3239 122.804 12.3239C124.93 12.3239 125.409 14.1555 125.01 15.9606C124.612 17.7922 123.415 19.6503 121.236 19.6503C119.056 19.6503 118.657 17.7922 119.056 15.9606ZM116.823 15.9606C116.132 19.0663 117.461 21.2696 120.864 21.2696C124.213 21.2696 126.552 19.0398 127.216 15.9606C127.881 12.8813 126.472 10.7046 123.15 10.7046C119.8 10.7046 117.514 12.8282 116.823 15.9606ZM111.214 21.0838H113.341L115.202 12.5097H118.259L118.604 10.8904H110.39L110.045 12.5097H113.102L111.214 21.0838ZM100.981 15.7216C102.283 15.0846 103.32 14.4209 103.612 13.014C103.984 11.3682 102.549 10.7046 101.06 10.7046C99.5718 10.7046 97.6579 11.4744 97.3124 13.014C97.0731 14.182 97.6048 14.7129 98.2693 15.4562C96.4352 16.1464 95.6909 17.0224 95.4251 18.27C95.0264 20.1812 96.4618 21.2431 98.5617 21.2431C99.625 21.2431 100.795 20.898 101.698 20.1547L102.23 21.0572H104.835L103.373 19.0133C104.436 18.0311 105.154 16.81 105.473 15.5358H103.612C103.4 16.3322 103.081 17.1816 102.443 17.7391L100.981 15.7216ZM100.024 14.6864C99.7047 14.2882 99.2262 13.8104 99.3326 13.2529C99.492 12.5097 100.183 12.1646 100.795 12.1646C101.406 12.1646 101.884 12.5097 101.725 13.1998C101.592 13.7838 100.608 14.3944 100.024 14.6864ZM100.927 19.1194C100.369 19.5707 99.6515 19.73 98.9338 19.73C97.9503 19.73 97.2592 19.1194 97.4719 18.2169C97.6579 17.4205 98.349 16.9427 99.1199 16.5711L100.927 19.1194ZM80.1673 21.0838H82.1875L83.8622 13.4653H83.8887L86.3076 21.0838H88.9126L91.1189 10.8904H89.0721L87.4241 18.5089H87.3975L85.0052 10.8904H82.4002L80.1673 21.0838ZM72.2461 21.0838H78.5459L78.8914 19.4911H74.7181L75.3561 16.6242H79.1307L79.4762 15.0049H75.6751L76.2333 12.4831H80.38L80.7255 10.8639H74.4523L72.2461 21.0838ZM72.6448 11.0762C71.9271 10.8373 71.0765 10.7046 70.1727 10.7046C68.312 10.7046 66.2652 11.5275 65.7868 13.8104C65.0425 17.1816 69.8803 16.3853 69.455 18.3231C69.2424 19.2522 68.0728 19.6503 67.2753 19.6503C66.4247 19.6503 65.6539 19.4114 65.0159 19.0133L64.4311 20.8449C65.4146 21.0838 65.9197 21.2431 67.0627 21.2431C69.1892 21.2431 71.236 20.3936 71.7144 18.1638C72.4587 14.766 67.6209 15.5093 68.0196 13.7308C68.2588 12.6159 69.2689 12.3239 69.9866 12.3239C70.7309 12.3239 71.4486 12.4831 72.06 12.7486L72.6448 11.0762ZM55.9782 21.0838H58.1047L59.0351 16.8631H59.7262C60.63 16.8631 60.8426 17.1551 60.9755 17.9249L61.5603 21.1103H63.9261L63.102 17.1285C62.9957 16.6773 62.7565 16.1198 62.1983 16.0933V16.0667C63.5805 15.8809 64.6438 14.8987 64.9096 13.7042C65.521 10.8639 62.7831 10.9435 60.4971 10.9435H58.1845L55.9782 21.0838ZM59.992 12.4831H60.6831C61.7464 12.4831 62.916 12.5893 62.6502 13.8104C62.3578 15.0846 61.135 15.2173 60.0983 15.2173H59.4072L59.992 12.4831ZM45.1596 21.0838H47.3658L48.8012 18.7478H53.1074L53.5061 21.0838H55.8719L53.9049 10.8904H51.5125L45.1596 21.0838ZM52.8682 17.1285H49.7582L52.2037 12.9344H52.2302L52.8682 17.1285ZM38.78 21.0838H45.0267L45.3722 19.4911H41.2521L43.1128 10.8904H40.9863L38.78 21.0838Z" fill="#0B1412"/>
</mask>
<g mask="url(#mask0_1_2221)">
<rect x="-0.604492" y="-12.0759" width="169.404" height="53.1081" fill="#525252"/>
</g>
</svg>
