<svg width="55" height="42" viewBox="0 0 55 42" fill="none" xmlns="http://www.w3.org/2000/svg">
<g clip-path="url(#clip0_1_2237)">
<path d="M54.3538 18.1234H34.8298V13.1261H54.3538V18.1234Z" fill="#E669A2"/>
<path d="M51.8179 18.1237H34.8298V5.62512H51.8179V18.1237Z" fill="#F3BE26"/>
<path d="M44.7993 18.1233H34.8298V0.630005H44.7993V18.1233Z" fill="#EE9C34"/>
<path d="M46.7607 18.1225H34.8298V2.58118H46.7607V18.1225Z" fill="#F3BC87"/>
<path d="M34.8298 2.58508V18.1218H44.801V2.58508H34.8298Z" fill="#E3721C"/>
<path d="M24.8337 18.1241H34.8309V20.623H24.8337V18.1241Z" fill="#AD1B02"/>
<path d="M34.8298 5.62122V18.121H46.7692V5.62122H34.8298Z" fill="#E88D14"/>
<path d="M34.8298 5.62122V18.121H44.801V5.62122H34.8298Z" fill="#D85604"/>
<path d="M41.0643 18.1221H34.8298V10.6202H41.0643V18.1221Z" fill="#C14303"/>
<path d="M34.8298 13.129V18.1211H51.8264V13.129H34.8298Z" fill="#DB4E18"/>
<path d="M34.8298 13.129V18.1211H46.7692V13.129H34.8298Z" fill="#D1390D"/>
<path d="M34.8298 13.129V18.1211H44.801V13.129H34.8298Z" fill="#C22303"/>
<path d="M34.8298 13.129V18.1211H41.0732V13.129H34.8298Z" fill="#AD1B02"/>
<path d="M37.0085 27.5355C35.3075 27.8379 34.4003 29.1231 34.4003 31.3533C34.4003 33.6213 35.6099 35.1333 37.3865 35.1333C38.2559 35.1333 39.0119 34.8309 40.5995 34.0371C40.5995 35.8894 40.5995 35.8894 40.5995 35.8894C38.6717 36.7966 37.5377 37.0234 36.0257 37.0234C34.3247 37.0234 33.1151 36.6076 32.1701 35.5869C31.1873 34.6041 30.6581 33.3189 30.6581 31.8447C30.6581 28.6317 33.0773 26.4015 36.5927 26.4015C38.8985 26.4015 40.5239 27.4977 40.5239 29.0475C40.5239 30.0681 39.7679 30.7863 38.6717 30.7863C38.1047 30.7863 37.6511 30.5973 37.0085 30.2571" fill="#525252"/>
<path d="M28.5007 31.8447C30.0505 29.9169 30.6175 29.1231 30.6175 28.1781C30.6175 27.2331 29.8615 26.4015 28.8031 26.4015C28.1983 26.4015 27.6313 26.7417 27.3667 27.0441C27.3667 31.0131 27.3667 31.0131 27.3667 31.0131C24.8341 34.4151 24.8341 34.4151 24.8341 34.4151C24.8341 26.7039 24.8341 26.7039 24.8341 26.7039C22.4149 26.7039 22.4149 26.7039 22.4149 26.7039C18.408 33.3189 18.408 33.3189 18.408 33.3189C18.408 26.7039 18.408 26.7039 18.408 26.7039C17.0472 26.7039 17.0472 26.7039 17.0472 26.7039C13.3806 27.5355 13.3806 27.5355 13.3806 27.5355C13.3806 28.4805 13.3806 28.4805 13.3806 28.4805C15.384 28.6695 15.384 28.6695 15.384 28.6695C15.384 36.8722 15.384 36.8722 15.384 36.8722C17.9166 36.8722 17.9166 36.8722 17.9166 36.8722C21.7723 30.5217 21.7723 30.5217 21.7723 30.5217C21.7723 36.8722 21.7723 36.8722 21.7723 36.8722C24.6073 36.8722 24.6073 36.8722 24.6073 36.8722" fill="#525252"/>
<path d="M5.70883 35.5874C6.01123 35.5874 6.08683 35.5874 6.27583 35.5874C8.31705 35.5874 9.45105 34.34 9.45105 31.8452C9.45105 29.7662 8.54385 28.6322 6.84284 28.6322C6.61603 28.6322 6.27583 28.67 5.70883 28.7834V35.5874ZM5.70883 40.0478C7.37204 40.4258 7.37204 40.4258 7.37204 40.4258C7.37204 41.3708 7.37204 41.3708 7.37204 41.3708C0.832597 41.3708 0.832598 41.3708 0.832598 41.3708C0.832598 40.4258 0.832598 40.4258 0.832598 40.4258C2.34461 40.0478 2.34461 40.0478 2.34461 40.0478C2.34461 28.6322 2.34461 28.6322 2.34461 28.6322C0.681396 28.6322 0.681396 28.6322 0.681396 28.6322C0.681396 27.6871 0.681396 27.6871 0.681396 27.6871C4.65042 26.4775 4.65042 26.4775 4.65042 26.4775C5.70883 26.4775 5.70883 26.4775 5.70883 26.4775C5.70883 27.8383 5.70883 27.8383 5.70883 27.8383C7.56104 26.7043 8.20365 26.5153 9.18645 26.5153C11.3789 26.5153 13.0421 28.5566 13.0421 31.3916C13.0421 34.6424 10.8119 36.8726 7.40984 36.8726C7.03184 36.8726 6.38923 36.8348 5.70883 36.797" fill="#525252"/>
</g>
<defs>
<clipPath id="clip0_1_2237">
<rect width="53.6763" height="40.7401" fill="white" transform="translate(0.67749 0.630005)"/>
</clipPath>
</defs>
</svg>
