<svg width="55" height="42" viewBox="0 0 55 42" fill="none" xmlns="http://www.w3.org/2000/svg">
<g clip-path="url(#clip0_1_1158)">
<path d="M54.3541 18.1232H34.8301V13.126H54.3541V18.1232Z" fill="#E669A2"/>
<path d="M51.8182 18.1236H34.8301V5.625H51.8182V18.1236Z" fill="#F3BE26"/>
<path d="M44.7996 18.1232H34.8301V0.629883H44.7996V18.1232Z" fill="#EE9C34"/>
<path d="M46.7609 18.1224H34.8301V2.58105H46.7609V18.1224Z" fill="#F3BC87"/>
<path d="M34.8301 2.58496V18.1217H44.8012V2.58496H34.8301Z" fill="#E3721C"/>
<path d="M24.834 18.124H34.8311V20.6229H24.834V18.124Z" fill="#AD1B02"/>
<path d="M34.8301 5.62109V18.1209H46.7694V5.62109H34.8301Z" fill="#E88D14"/>
<path d="M34.8301 5.62109V18.1209H44.8012V5.62109H34.8301Z" fill="#D85604"/>
<path d="M41.0645 18.122H34.8301V10.6201H41.0645V18.122Z" fill="#C14303"/>
<path d="M34.8301 13.1289V18.121H51.8267V13.1289H34.8301Z" fill="#DB4E18"/>
<path d="M34.8301 13.1289V18.121H46.7694V13.1289H34.8301Z" fill="#D1390D"/>
<path d="M34.8301 13.1289V18.121H44.8012V13.1289H34.8301Z" fill="#C22303"/>
<path d="M34.8301 13.1289V18.121H41.0735V13.1289H34.8301Z" fill="#AD1B02"/>
<path d="M37.0086 27.5354C35.3076 27.8378 34.4004 29.123 34.4004 31.3532C34.4004 33.6212 35.61 35.1332 37.3866 35.1332C38.2561 35.1332 39.0121 34.8308 40.5997 34.037C40.5997 35.8892 40.5997 35.8892 40.5997 35.8892C38.6719 36.7964 37.5378 37.0232 36.0258 37.0232C34.3248 37.0232 33.1152 36.6074 32.1702 35.5868C31.1874 34.604 30.6582 33.3188 30.6582 31.8446C30.6582 28.6316 33.0774 26.4014 36.5928 26.4014C38.8987 26.4014 40.5241 27.4976 40.5241 29.0474C40.5241 30.068 39.7681 30.7862 38.6719 30.7862C38.1049 30.7862 37.6512 30.5972 37.0086 30.257" fill="#E0E0E0"/>
<path d="M28.501 31.8446C30.0508 29.9168 30.6178 29.123 30.6178 28.178C30.6178 27.233 29.8618 26.4014 28.8034 26.4014C28.1986 26.4014 27.6316 26.7416 27.367 27.044C27.367 31.013 27.367 31.013 27.367 31.013C24.8343 34.415 24.8343 34.415 24.8343 34.415C24.8343 26.7038 24.8343 26.7038 24.8343 26.7038C22.4151 26.7038 22.4151 26.7038 22.4151 26.7038C18.4083 33.3188 18.4083 33.3188 18.4083 33.3188C18.4083 26.7038 18.4083 26.7038 18.4083 26.7038C17.0475 26.7038 17.0475 26.7038 17.0475 26.7038C13.3809 27.5354 13.3809 27.5354 13.3809 27.5354C13.3809 28.4804 13.3809 28.4804 13.3809 28.4804C15.3843 28.6694 15.3843 28.6694 15.3843 28.6694C15.3843 36.872 15.3843 36.872 15.3843 36.872C17.9169 36.872 17.9169 36.872 17.9169 36.872C21.7725 30.5216 21.7725 30.5216 21.7725 30.5216C21.7725 36.872 21.7725 36.872 21.7725 36.872C24.6075 36.872 24.6075 36.872 24.6075 36.872" fill="#E0E0E0"/>
<path d="M5.70907 35.5872C6.01148 35.5872 6.08708 35.5872 6.27608 35.5872C8.31729 35.5872 9.4513 34.3397 9.4513 31.8449C9.4513 29.7659 8.54409 28.6319 6.84308 28.6319C6.61628 28.6319 6.27608 28.6697 5.70907 28.7831V35.5872ZM5.70907 40.0476C7.37228 40.4256 7.37228 40.4256 7.37228 40.4256C7.37228 41.3706 7.37228 41.3706 7.37228 41.3706C0.832841 41.3706 0.832842 41.3706 0.832842 41.3706C0.832842 40.4256 0.832842 40.4256 0.832842 40.4256C2.34485 40.0476 2.34485 40.0476 2.34485 40.0476C2.34485 28.6319 2.34485 28.6319 2.34485 28.6319C0.68164 28.6319 0.681641 28.6319 0.681641 28.6319C0.681641 27.6869 0.681641 27.6869 0.681641 27.6869C4.65067 26.4773 4.65067 26.4773 4.65067 26.4773C5.70907 26.4773 5.70907 26.4773 5.70907 26.4773C5.70907 27.8381 5.70907 27.8381 5.70907 27.8381C7.56129 26.7041 8.20389 26.5151 9.1867 26.5151C11.3791 26.5151 13.0423 28.5563 13.0423 31.3913C13.0423 34.6421 10.8121 36.8724 7.41008 36.8724C7.03208 36.8724 6.38948 36.8346 5.70907 36.7968" fill="#E0E0E0"/>
</g>
<defs>
<clipPath id="clip0_1_1158">
<rect width="53.6763" height="40.7401" fill="white" transform="translate(0.677734 0.629883)"/>
</clipPath>
</defs>
</svg>
