<svg width="22" height="22" viewBox="0 0 22 22" fill="none" xmlns="http://www.w3.org/2000/svg">
<path d="M20.2812 19.9375H1.71875C1.15019 19.9375 0.6875 19.4748 0.6875 18.9062V14.7812C0.6875 14.6901 0.723716 14.6026 0.788182 14.5382C0.852648 14.4737 0.940082 14.4375 1.03125 14.4375C1.12242 14.4375 1.20985 14.4737 1.27432 14.5382C1.33878 14.6026 1.375 14.6901 1.375 14.7812V18.9062C1.375 19.0953 1.52969 19.25 1.71875 19.25H20.2812C20.4703 19.25 20.625 19.0953 20.625 18.9062V14.7812C20.625 14.6901 20.6612 14.6026 20.7257 14.5382C20.7901 14.4737 20.8776 14.4375 20.9688 14.4375C21.0599 14.4375 21.1474 14.4737 21.2118 14.5382C21.2763 14.6026 21.3125 14.6901 21.3125 14.7812V18.9062C21.3125 19.4748 20.8498 19.9375 20.2812 19.9375ZM14.7812 4.125C14.6901 4.125 14.6026 4.08878 14.5382 4.02432C14.4737 3.95985 14.4375 3.87242 14.4375 3.78125V2.40625C14.4375 2.21719 14.2828 2.0625 14.0938 2.0625H7.90625C7.71719 2.0625 7.5625 2.21719 7.5625 2.40625V3.78125C7.5625 3.87242 7.52628 3.95985 7.46182 4.02432C7.39735 4.08878 7.30992 4.125 7.21875 4.125C7.12758 4.125 7.04015 4.08878 6.97568 4.02432C6.91122 3.95985 6.875 3.87242 6.875 3.78125V2.40625C6.875 1.83769 7.33769 1.375 7.90625 1.375H14.0938C14.6623 1.375 15.125 1.83769 15.125 2.40625V3.78125C15.125 3.87242 15.0888 3.95985 15.0243 4.02432C14.9599 4.08878 14.8724 4.125 14.7812 4.125ZM18.9062 14.4375H17.5312C17.4401 14.4375 17.3526 14.4013 17.2882 14.3368C17.2237 14.2724 17.1875 14.1849 17.1875 14.0938C17.1875 14.0026 17.2237 13.9151 17.2882 13.8507C17.3526 13.7862 17.4401 13.75 17.5312 13.75H18.9062C19.8543 13.75 20.625 12.9793 20.625 12.0312V5.5H2.40625C2.31508 5.5 2.22765 5.46378 2.16318 5.39932C2.09872 5.33485 2.0625 5.24742 2.0625 5.15625C2.0625 5.06508 2.09872 4.97765 2.16318 4.91318C2.22765 4.84872 2.31508 4.8125 2.40625 4.8125H20.9688C21.0599 4.8125 21.1474 4.84872 21.2118 4.91318C21.2763 4.97765 21.3125 5.06508 21.3125 5.15625V12.0312C21.3125 13.3581 20.2331 14.4375 18.9062 14.4375Z" fill="#262626"/>
<path d="M4.46875 14.4375H3.09375C1.76688 14.4375 0.6875 13.3581 0.6875 12.0312V5.15625C0.6875 5.06508 0.723716 4.97765 0.788182 4.91318C0.852648 4.84872 0.940082 4.8125 1.03125 4.8125C1.12242 4.8125 1.20985 4.84872 1.27432 4.91318C1.33878 4.97765 1.375 5.06508 1.375 5.15625V12.0312C1.375 12.9793 2.14569 13.75 3.09375 13.75H4.46875C4.55992 13.75 4.64735 13.7862 4.71182 13.8507C4.77628 13.9151 4.8125 14.0026 4.8125 14.0938C4.8125 14.1849 4.77628 14.2724 4.71182 14.3368C4.64735 14.4013 4.55992 14.4375 4.46875 14.4375ZM13.4062 14.4375H8.59375C8.50258 14.4375 8.41515 14.4013 8.35068 14.3368C8.28622 14.2724 8.25 14.1849 8.25 14.0938C8.25 14.0026 8.28622 13.9151 8.35068 13.8507C8.41515 13.7862 8.50258 13.75 8.59375 13.75H13.4062C13.4974 13.75 13.5849 13.7862 13.6493 13.8507C13.7138 13.9151 13.75 14.0026 13.75 14.0938C13.75 14.1849 13.7138 14.2724 13.6493 14.3368C13.5849 14.4013 13.4974 14.4375 13.4062 14.4375ZM6.53125 15.8125C5.96269 15.8125 5.5 15.3498 5.5 14.7812V12.7188C5.5 12.6276 5.53622 12.5401 5.60068 12.4757C5.66515 12.4112 5.75258 12.375 5.84375 12.375H7.21875C7.30992 12.375 7.39735 12.4112 7.46182 12.4757C7.52628 12.5401 7.5625 12.6276 7.5625 12.7188V14.7812C7.5625 15.3498 7.09981 15.8125 6.53125 15.8125ZM6.1875 13.0625V14.7812C6.1875 14.9703 6.34219 15.125 6.53125 15.125C6.72031 15.125 6.875 14.9703 6.875 14.7812V13.0625H6.1875ZM15.4688 15.8125C14.9002 15.8125 14.4375 15.3498 14.4375 14.7812V12.7188C14.4375 12.6276 14.4737 12.5401 14.5382 12.4757C14.6026 12.4112 14.6901 12.375 14.7812 12.375H16.1562C16.2474 12.375 16.3349 12.4112 16.3993 12.4757C16.4638 12.5401 16.5 12.6276 16.5 12.7188V14.7812C16.5 15.3498 16.0373 15.8125 15.4688 15.8125ZM15.125 13.0625V14.7812C15.125 14.9703 15.2797 15.125 15.4688 15.125C15.6578 15.125 15.8125 14.9703 15.8125 14.7812V13.0625H15.125Z" fill="#262626"/>
</svg>
