<svg width="28" height="22" viewBox="0 0 28 22" fill="none" xmlns="http://www.w3.org/2000/svg">
<path d="M1.25868 0.00641641C1.14942 0.0421402 1.05494 0.112795 0.98978 0.207497C0.924625 0.3022 0.892412 0.415697 0.898104 0.530507V16.2532C0.898104 16.3922 0.953321 16.5255 1.05161 16.6238C1.14989 16.7221 1.2832 16.7773 1.42219 16.7773H6.13901V21.4941C6.14266 21.599 6.1777 21.7004 6.23962 21.7851C6.30153 21.8698 6.38745 21.934 6.48626 21.9694C6.58507 22.0047 6.69222 22.0096 6.79383 21.9834C6.89544 21.9571 6.98683 21.901 7.05617 21.8222L11.708 16.7773H26.5785C26.7175 16.7773 26.8508 16.7221 26.9491 16.6238C27.0474 16.5255 27.1026 16.3922 27.1026 16.2532V0.530507C27.1026 0.391509 27.0474 0.258205 26.9491 0.159919C26.8508 0.061633 26.7175 0.00641641 26.5785 0.00641641H1.42219C1.36802 -0.0021388 1.31285 -0.0021388 1.25868 0.00641641ZM1.94629 1.0546H26.0544V15.7291H11.5109C11.4376 15.7274 11.3648 15.741 11.2971 15.7692C11.2293 15.7973 11.1683 15.8394 11.1179 15.8926L7.18719 20.1525V16.2532C7.18719 16.1142 7.13197 15.9809 7.03369 15.8826C6.9354 15.7843 6.8021 15.7291 6.6631 15.7291H1.94629V1.0546ZM8.95652 6.81959C7.96075 6.81959 7.18719 7.65604 7.18719 8.65391C7.18719 9.65178 7.9597 10.5207 8.95652 10.5207C9.95229 10.5207 10.7573 9.65178 10.7573 8.65391C10.7573 7.65604 9.95334 6.81959 8.95652 6.81959ZM14.0004 6.81959C13.0046 6.81959 12.231 7.65604 12.231 8.65391C12.231 9.65178 13.0046 10.5207 14.0004 10.5207C14.9961 10.5207 15.7697 9.65178 15.7697 8.65391C15.7697 7.65604 14.9961 6.81959 14.0004 6.81959ZM19.0453 6.81959C18.0495 6.81959 17.2424 7.65604 17.2424 8.65391C17.2424 9.65178 18.0495 10.5207 19.0453 10.5207C20.041 10.5207 20.8135 9.65178 20.8135 8.65391C20.8135 7.65604 20.0421 6.81959 19.0453 6.81959ZM8.95652 7.86777C9.27726 7.86777 9.70911 8.2556 9.70911 8.65391C9.70911 9.05222 9.27726 9.47254 8.95547 9.47254C8.63473 9.47254 8.23537 9.05327 8.23537 8.65391C8.23537 8.2556 8.63368 7.86777 8.95652 7.86777ZM14.0004 7.86777C14.3222 7.86777 14.7215 8.2556 14.7215 8.65391C14.7215 9.05222 14.3222 9.47254 14.0004 9.47254C13.6786 9.47254 13.2792 9.05327 13.2792 8.65391C13.2792 8.2556 13.6786 7.86777 14.0004 7.86777ZM19.0453 7.86777C19.366 7.86777 19.7654 8.2556 19.7654 8.65391C19.7654 9.05222 19.3671 9.47254 19.0442 9.47254C18.7235 9.47254 18.2916 9.05327 18.2916 8.65391C18.2916 8.2556 18.7245 7.86777 19.0453 7.86777Z" fill="#262626"/>
</svg>
